<?xml version="1.0" encoding="utf-8"?><!DOCTYPE svg PUBLIC "-//W3C//DTD SVG 1.1//EN" "http://www.w3.org/Graphics/SVG/1.1/DTD/svg11.dtd"><svg xmlns="http://www.w3.org/2000/svg" xmlns:xlink="http://www.w3.org/1999/xlink"><symbol viewBox="0 0 120 60" id="bigcommerce" xmlns="http://www.w3.org/2000/svg"><path d="M34.858 30.387c-.437-.593-1.18-1.077-2.08-1.077-1.666 0-2.868 1.272-2.868 2.994s1.202 2.994 2.868 2.994c.778 0 1.506-.332 1.887-.663a.114.114 0 0 0 .04-.088v-.934a.106.106 0 0 0-.106-.106h-2.143a.155.155 0 0 1-.154-.154v-1.387c0-.085.07-.155.154-.155h3.842v-2.058l-1.24.68a.158.158 0 0 1-.198-.046zm-18.037.974h2.3c.655 0 1.065-.37 1.065-.957 0-.56-.4-.957-1.065-.957h-2.3a.14.14 0 0 0-.142.142v1.63a.14.14 0 0 0 .142.142zm9.305 5.37c0 .07-.057.127-.127.127h-1.685a.127.127 0 0 1-.127-.127v-8.865c0-.07.057-.127.127-.127H26c.07 0 .127.057.127.127zm9.687-21.226L19.1 27.737h.43c1.734 0 2.622 1.107 2.622 2.324 0 .947-.494 1.646-1.157 1.955-.1.052-.106.208.006.254.773.317 1.33 1.145 1.33 2.112 0 1.38-.9 2.475-2.65 2.475H14.88a.14.14 0 0 1-.142-.142V30.93L2.343 40.005a.304.304 0 0 0 .18.55h33.47a.304.304 0 0 0 .304-.305v-4.6c-.896.836-2.073 1.36-3.52 1.36-2.676 0-4.86-1.846-4.86-4.717 0-2.885 2.185-4.717 4.86-4.717 1.683 0 2.8.763 3.52 1.696V15.75a.304.304 0 0 0-.484-.246zM16.82 35.147h2.37c.724 0 1.16-.383 1.16-1.04 0-.574-.4-1.04-1.16-1.04h-2.37a.14.14 0 0 0-.142.142v1.794a.14.14 0 0 0 .142.142zM46 34.87l-1.045-.542a.15.15 0 0 0-.193.055c-.442.693-1.257 1.208-2.142 1.208-1.74 0-3.03-1.395-3.03-3.295 0-1.928 1.3-3.295 3.03-3.295.885 0 1.7.502 2.142 1.205a.15.15 0 0 0 .195.054l1.037-.565a.152.152 0 0 0 .058-.218c-.656-1.033-1.742-1.898-3.432-1.898-2.595 0-4.6 1.9-4.6 4.717 0 2.803 2.015 4.717 4.6 4.717 1.688 0 2.762-.887 3.44-1.92a.151.151 0 0 0-.06-.22zm5.445.72c-1.78 0-2.914-1.422-2.914-3.295C48.54 30.4 49.675 29 51.455 29c1.767 0 2.914 1.4 2.914 3.295 0 1.873-1.147 3.295-2.914 3.295zM50.2 27.74c-1.958.524-3.25 2.3-3.25 4.558 0 2.72 1.86 4.717 4.496 4.717 2.246 0 3.94-1.462 4.383-3.6.72-3.465-2.318-6.57-5.628-5.685zm16.68-.01h-2a.21.21 0 0 0-.2.137l-2.418 6.258-2.43-6.258a.217.217 0 0 0-.2-.137h-2a.106.106 0 0 0-.107.107v8.905c0 .06.048.107.107.107h1.384c.06 0 .107-.048.107-.107v-6.934l2.78 6.993c.012.03.04.048.07.048h.578c.03 0 .06-.02.07-.048l2.767-6.993v6.934c0 .06.048.107.107.107H66.9c.06 0 .107-.048.107-.107v-8.905a.106.106 0 0 0-.107-.107zm20.433 0H81.4a.16.16 0 0 0-.165.165v8.8c0 .1.074.165.165.165h5.912a.16.16 0 0 0 .165-.165v-1.078a.16.16 0 0 0-.165-.165H83a.16.16 0 0 1-.165-.165v-2.214c0-.1.074-.165.165-.165h4.218a.16.16 0 0 0 .165-.165v-1.078a.16.16 0 0 0-.165-.165H83a.16.16 0 0 1-.165-.165v-2.022c0-.1.074-.165.165-.165h4.314a.16.16 0 0 0 .165-.165v-1.078a.16.16 0 0 0-.165-.165zm6.232 4.307H91.52a.158.158 0 0 1-.163-.163V29.3c0-.1.073-.163.163-.163h2.035c.9 0 1.557.56 1.557 1.436 0 .9-.656 1.463-1.557 1.463zM94.8 33.22c1.02-.257 1.94-1.13 1.94-2.633 0-1.695-1.188-2.857-3-2.857h-3.83c-.1 0-.163.073-.163.163v8.793c0 .1.073.164.163.164h1.27c.1 0 .163-.074.163-.164v-3.078c0-.1.073-.163.163-.163h1.34c.058 0 .1.03.14.08L94.9 36.77c.03.05.083.08.14.08h1.47c.128 0 .207-.14.14-.25l-1.96-3.136c-.06-.096-.004-.217.106-.245zm14.5-4.082h4.322a.16.16 0 0 0 .16-.161V27.9c0-.1-.072-.16-.16-.16h-5.92a.16.16 0 0 0-.16.16v8.798c0 .1.072.16.16.16h5.92a.16.16 0 0 0 .16-.161V35.61a.16.16 0 0 0-.16-.161h-4.31a.16.16 0 0 1-.16-.16v-2.222c0-.1.072-.16.16-.16h4.226a.16.16 0 0 0 .161-.161V31.65c0-.1-.072-.16-.16-.16H109.3a.16.16 0 0 1-.161-.161V29.3a.16.16 0 0 1 .161-.161zm-3.4 5.695-1.045-.542a.15.15 0 0 0-.193.055c-.442.693-1.257 1.208-2.142 1.208-1.74 0-3.03-1.395-3.03-3.295 0-1.928 1.3-3.295 3.03-3.295.885 0 1.7.502 2.142 1.205.04.066.127.1.195.054l1.037-.565a.152.152 0 0 0 .058-.218c-.656-1.033-1.742-1.898-3.432-1.898-2.595 0-4.6 1.9-4.6 4.717 0 2.803 2.015 4.717 4.6 4.717 1.688 0 2.762-.887 3.44-1.92a.15.15 0 0 0-.06-.22zM78.687 27.73h-2a.21.21 0 0 0-.2.137l-2.418 6.258-2.43-6.258a.217.217 0 0 0-.2-.137h-2a.106.106 0 0 0-.107.107v8.905c0 .06.048.107.107.107h1.384c.06 0 .107-.048.107-.107v-6.934L73.7 36.8c.012.03.04.048.07.048h.578c.03 0 .06-.02.07-.048l2.767-6.993v6.934c0 .06.048.107.107.107h1.383c.06 0 .107-.048.107-.107v-8.905a.106.106 0 0 0-.107-.107z" fill="#34313f" fill-rule="evenodd"/></symbol><symbol id="bigcommerce-notext" viewBox="0 0 2489.2 2487.6" style="enable-background:new 0 0 2489.2 2487.6" xml:space="preserve" xmlns="http://www.w3.org/2000/svg"><style>.ast0{fill:#34313f}</style><path class="ast0" d="M1311.5 1416.2h314c89.3 0 145.8-49.1 145.8-128 0-74.4-56.5-128-145.8-128h-314c-10.4 0-19.3 8.9-19.3 17.9v220.2c1.4 10.4 8.8 17.9 19.3 17.9zm0 507.4h324.4c99.7 0 159.2-50.6 159.2-139.9 0-77.4-56.5-139.9-159.2-139.9h-324.4c-10.4 0-19.3 8.9-19.3 17.9v242.6c1.4 11.9 8.8 19.3 19.3 19.3z"/><path class="ast0" d="m2460.3 5.5-928.6 925.6h151.8c236.6 0 376.5 148.8 376.5 311 0 128-86.3 221.7-178.6 263.4-14.9 6-14.9 26.8 1.5 32.7 107.1 41.7 183 153.3 183 284.2 0 184.5-123.5 331.8-363.1 331.8h-657.7c-10.4 0-19.3-8.9-19.3-17.9v-700.9L6.4 2450.4c-13.4 13.4-4.5 37.2 14.9 37.2h2450.9c8.9 0 16.4-7.4 16.4-16.4V18.9c4.4-16.4-16.4-25.3-28.3-13.4z"/></symbol><symbol fill="none" viewBox="0 0 124 141.53" id="css" xmlns="http://www.w3.org/2000/svg"><path d="M10.383 126.892 0 0l124 .255-10.979 126.637-50.553 14.638z" fill="#1b73ba"/><path d="M62.468 129.275V12.085l51.064.17-9.106 104.85z" fill="#1c88c7"/><path d="M100.851 27.064H22.298l2.128 15.318h37.276l-36.68 15.745 2.127 14.808h54.043l-1.958 20.68-18.298 3.575-16.595-4.255-1.277-11.745H27.83l2.042 24.426 32.681 9.106 31.32-9.957 4-47.745H64.765l36.085-14.978z" fill="#fff"/></symbol><symbol viewBox="0 0 24 24" id="github" xmlns="http://www.w3.org/2000/svg"><path d="M12 0C5.374 0 0 5.373 0 12c0 5.302 3.438 9.8 8.207 11.387.599.111.793-.261.793-.577v-2.234c-3.338.726-4.033-1.416-4.033-1.416-.546-1.387-1.333-1.756-1.333-1.756-1.089-.745.083-.729.083-.729 1.205.084 1.839 1.237 1.839 1.237 1.07 1.834 2.807 1.304 3.492.997.107-.775.418-1.305.762-1.604-2.665-.305-5.467-1.334-5.467-5.931 0-1.311.469-2.381 1.236-3.221-.124-.303-.535-1.524.117-3.176 0 0 1.008-.322 3.301 1.23A11.509 11.509 0 0 1 12 5.803c1.02.005 2.047.138 3.006.404 2.291-1.552 3.297-1.23 3.297-1.23.653 1.653.242 2.874.118 3.176.77.84 1.235 1.911 1.235 3.221 0 4.609-2.807 5.624-5.479 5.921.43.372.823 1.102.823 2.222v3.293c0 .319.192.694.801.576C20.566 21.797 24 17.3 24 12c0-6.627-5.373-12-12-12z"/></symbol><symbol viewBox="0 0 120 60" id="handlebars" xmlns="http://www.w3.org/2000/svg"><path d="M13.293 10.308v3.642a5.236 5.236 0 0 1 .914-.85 3.237 3.237 0 0 1 .988-.47 4.127 4.127 0 0 1 1.157-.153 3.407 3.407 0 0 1 1.618.397 3.067 3.067 0 0 1 1.522 2.128 7.744 7.744 0 0 1 .089 1.254v4.694a1.618 1.618 0 0 1-.34 1.116 1.141 1.141 0 0 1-.89.38q-1.214 0-1.214-1.488v-4.152a3.795 3.795 0 0 0-.348-1.812 1.384 1.384 0 0 0-1.327-.631 1.99 1.99 0 0 0-1.182.372 2.25 2.25 0 0 0-.809 1.02 6.547 6.547 0 0 0-.194 1.95v3.236a1.618 1.618 0 0 1-.332 1.109 1.133 1.133 0 0 1-.89.388q-1.214 0-1.214-1.488V10.308a1.683 1.683 0 0 1 .316-1.116 1.117 1.117 0 0 1 .898-.365 1.141 1.141 0 0 1 .914.38 1.618 1.618 0 0 1 .324 1.11zM28.24 21.071a7.582 7.582 0 0 1-1.723 1.036 4.855 4.855 0 0 1-1.862.348 3.528 3.528 0 0 1-1.618-.373 2.727 2.727 0 0 1-1.1-1.011 2.622 2.622 0 0 1-.389-1.384 2.476 2.476 0 0 1 .64-1.715 3.188 3.188 0 0 1 1.747-.955l1.157-.243q.923-.186 1.619-.348.696-.162 1.432-.38a2.565 2.565 0 0 0-.388-1.425 1.748 1.748 0 0 0-1.53-.42 2.986 2.986 0 0 0-1.408.259 2.298 2.298 0 0 0-.809.809q-.34.518-.485.688a.81.81 0 0 1-.6.17 1.044 1.044 0 0 1-.711-.267.866.866 0 0 1-.3-.68 2.08 2.08 0 0 1 .461-1.254 3.277 3.277 0 0 1 1.433-1.004 6.474 6.474 0 0 1 2.427-.396 6.846 6.846 0 0 1 2.541.38 2.371 2.371 0 0 1 1.311 1.206 5.284 5.284 0 0 1 .38 2.193v2.791a4.936 4.936 0 0 0 .195 1.384 4.564 4.564 0 0 1 .226.996.906.906 0 0 1-.356.687 1.19 1.19 0 0 1-.809.308 1.084 1.084 0 0 1-.744-.356 5.228 5.228 0 0 1-.745-1.052zm-.162-3.544a12.381 12.381 0 0 1-1.57.42q-1.027.219-1.424.324a1.942 1.942 0 0 0-.752.405 1.036 1.036 0 0 0-.356.809 1.246 1.246 0 0 0 .42.947 1.562 1.562 0 0 0 1.11.388 2.873 2.873 0 0 0 1.342-.316 2.128 2.128 0 0 0 .907-.809 3.755 3.755 0 0 0 .332-1.829zm7.097-3.699v.3a4.297 4.297 0 0 1 1.416-1.254 3.77 3.77 0 0 1 1.764-.397 3.52 3.52 0 0 1 1.732.42 2.679 2.679 0 0 1 1.1 1.198 2.84 2.84 0 0 1 .316.972 10.002 10.002 0 0 1 .073 1.327v4.564a1.618 1.618 0 0 1-.34 1.116 1.214 1.214 0 0 1-1.764 0 1.618 1.618 0 0 1-.34-1.108v-4.103a4.087 4.087 0 0 0-.3-1.87 1.376 1.376 0 0 0-1.342-.639 1.99 1.99 0 0 0-1.158.397 2.25 2.25 0 0 0-.809 1.052 7.671 7.671 0 0 0-.178 2.047v3.075a1.618 1.618 0 0 1-.348 1.117 1.165 1.165 0 0 1-.89.372 1.109 1.109 0 0 1-.874-.388 1.618 1.618 0 0 1-.34-1.109v-7.04a1.546 1.546 0 0 1 .308-1.044 1.06 1.06 0 0 1 .809-.348 1.133 1.133 0 0 1 .583.154 1.092 1.092 0 0 1 .42.461 1.618 1.618 0 0 1 .162.737zm15.602 7.219v-.243a6.239 6.239 0 0 1-.971.922 3.666 3.666 0 0 1-1.044.543 3.917 3.917 0 0 1-1.23.186 3.617 3.617 0 0 1-1.618-.373 3.803 3.803 0 0 1-1.295-1.068 4.855 4.855 0 0 1-.81-1.618 6.935 6.935 0 0 1-.283-2.023 5.268 5.268 0 0 1 1.125-3.585 3.73 3.73 0 0 1 2.954-1.287 3.973 3.973 0 0 1 1.788.364 4.993 4.993 0 0 1 1.416 1.117v-3.625a1.829 1.829 0 0 1 .3-1.141 1.028 1.028 0 0 1 .857-.389 1.06 1.06 0 0 1 .858.357 1.618 1.618 0 0 1 .3 1.043v10.82a1.505 1.505 0 0 1-.324 1.052 1.084 1.084 0 0 1-.81.348 1.068 1.068 0 0 1-.808-.365 1.497 1.497 0 0 1-.405-1.035zm-4.855-3.601a4.176 4.176 0 0 0 .307 1.699 2.363 2.363 0 0 0 .81 1.052 2.096 2.096 0 0 0 1.173.356 2.169 2.169 0 0 0 1.181-.34 2.314 2.314 0 0 0 .85-1.036 4.176 4.176 0 0 0 .396-1.748 4.046 4.046 0 0 0-.315-1.683 2.533 2.533 0 0 0-.866-1.076 2.063 2.063 0 0 0-1.19-.372 2.007 2.007 0 0 0-1.205.38 2.428 2.428 0 0 0-.81 1.093 4.362 4.362 0 0 0-.299 1.658zm9.63 3.512v-10.65a1.618 1.618 0 0 1 .331-1.116 1.109 1.109 0 0 1 .882-.38 1.157 1.157 0 0 1 .898.372 1.618 1.618 0 0 1 .34 1.116v10.65a1.618 1.618 0 0 1-.348 1.116 1.165 1.165 0 0 1-.89.372 1.109 1.109 0 0 1-.874-.388 1.618 1.618 0 0 1-.34-1.1zm11.838-2.897H62.59a3.237 3.237 0 0 0 .34 1.472 2.25 2.25 0 0 0 2.072 1.287 2.946 2.946 0 0 0 .81-.105 2.614 2.614 0 0 0 .703-.324 5.34 5.34 0 0 0 .631-.47q.292-.242.745-.679a.81.81 0 0 1 .542-.162.89.89 0 0 1 .607.21.736.736 0 0 1 .235.583 1.618 1.618 0 0 1-.26.81 3.083 3.083 0 0 1-.809.85 4.459 4.459 0 0 1-1.319.679 5.665 5.665 0 0 1-1.828.267 4.855 4.855 0 0 1-3.642-1.384 5.017 5.017 0 0 1-1.335-3.666 6.093 6.093 0 0 1 .324-2.015 4.45 4.45 0 0 1 .946-1.618 4.095 4.095 0 0 1 1.53-1.02 5.478 5.478 0 0 1 2.015-.356 4.774 4.774 0 0 1 2.427.607 3.99 3.99 0 0 1 1.538 1.57 4.127 4.127 0 0 1 .542 2.023q0 .923-.526 1.198a3.302 3.302 0 0 1-1.489.243zm-4.799-1.392h4.451a2.978 2.978 0 0 0-.68-1.886 2.031 2.031 0 0 0-1.553-.59 1.966 1.966 0 0 0-1.505.63 3.156 3.156 0 0 0-.713 1.846zm10.9-6.442v3.747a5.665 5.665 0 0 1 1.409-1.1 3.763 3.763 0 0 1 1.78-.38 3.933 3.933 0 0 1 2.144.582 3.803 3.803 0 0 1 1.433 1.683 6.182 6.182 0 0 1 .51 2.606 6.984 6.984 0 0 1-.284 2.047 4.855 4.855 0 0 1-.809 1.618 3.714 3.714 0 0 1-1.311 1.052 3.828 3.828 0 0 1-1.691.373 4.046 4.046 0 0 1-1.076-.17 3.1 3.1 0 0 1-.81-.356 3.803 3.803 0 0 1-.599-.453q-.242-.243-.647-.705v.243a1.48 1.48 0 0 1-.332 1.044 1.109 1.109 0 0 1-.809.356 1.052 1.052 0 0 1-.81-.356 1.554 1.554 0 0 1-.307-1.044V10.333a1.796 1.796 0 0 1 .3-1.125 1.012 1.012 0 0 1 .809-.38 1.076 1.076 0 0 1 .874.364 1.57 1.57 0 0 1 .227 1.027zm.114 7.283a3.374 3.374 0 0 0 .672 2.25 2.193 2.193 0 0 0 1.756.81 2.015 2.015 0 0 0 1.618-.81 3.512 3.512 0 0 0 .647-2.33 4.515 4.515 0 0 0-.275-1.619 2.428 2.428 0 0 0-.809-1.084 1.942 1.942 0 0 0-1.198-.38 2.128 2.128 0 0 0-1.246.38 2.54 2.54 0 0 0-.841 1.084 4.297 4.297 0 0 0-.316 1.707zm15.326 3.56a7.582 7.582 0 0 1-1.723 1.037 4.855 4.855 0 0 1-1.861.348 3.528 3.528 0 0 1-1.619-.373 2.727 2.727 0 0 1-1.1-1.011 2.622 2.622 0 0 1-.389-1.384 2.476 2.476 0 0 1 .64-1.715 3.188 3.188 0 0 1 1.747-.955l1.158-.243q.922-.186 1.618-.348.696-.162 1.432-.38a2.565 2.565 0 0 0-.388-1.425 1.748 1.748 0 0 0-1.505-.42 2.986 2.986 0 0 0-1.408.259 2.298 2.298 0 0 0-.81.809q-.34.518-.485.688a.81.81 0 0 1-.599.17 1.044 1.044 0 0 1-.704-.308.866.866 0 0 1-.3-.68 2.08 2.08 0 0 1 .462-1.254 3.277 3.277 0 0 1 1.432-1.003 6.474 6.474 0 0 1 2.428-.397 6.846 6.846 0 0 1 2.54.38 2.371 2.371 0 0 1 1.312 1.206 5.284 5.284 0 0 1 .38 2.193v2.792a4.936 4.936 0 0 0 .227 1.44 4.564 4.564 0 0 1 .226.963.906.906 0 0 1-.356.688 1.19 1.19 0 0 1-.809.308 1.084 1.084 0 0 1-.744-.356 5.228 5.228 0 0 1-.81-1.036zm-.161-3.543a12.381 12.381 0 0 1-1.57.42q-1.028.219-1.425.324a1.942 1.942 0 0 0-.752.405 1.036 1.036 0 0 0-.356.809 1.246 1.246 0 0 0 .42.947 1.562 1.562 0 0 0 1.11.388 2.873 2.873 0 0 0 1.343-.316 2.128 2.128 0 0 0 .906-.809 3.755 3.755 0 0 0 .332-1.829zm7.323 1.375v2.048a1.618 1.618 0 0 1-.348 1.116 1.165 1.165 0 0 1-.89.372 1.125 1.125 0 0 1-.874-.38 1.618 1.618 0 0 1-.34-1.117V14.12q0-1.619 1.198-1.619a.995.995 0 0 1 .882.389 2.12 2.12 0 0 1 .3 1.14 4.297 4.297 0 0 1 .905-1.14 1.861 1.861 0 0 1 1.239-.389 3.156 3.156 0 0 1 1.497.389 1.157 1.157 0 0 1 .728 1.027.971.971 0 0 1-.308.745.963.963 0 0 1-.671.291 3.083 3.083 0 0 1-.648-.17 3.026 3.026 0 0 0-.914-.17 1.335 1.335 0 0 0-.882.284 1.813 1.813 0 0 0-.534.809 5.843 5.843 0 0 0-.26 1.327q-.08.76-.08 1.861zm13.069.324a2.84 2.84 0 0 1-1.959 2.832 6.538 6.538 0 0 1-2.346.372 5.73 5.73 0 0 1-2.266-.404 3.294 3.294 0 0 1-1.392-1.012 2.04 2.04 0 0 1-.445-1.214.947.947 0 0 1 .283-.687.987.987 0 0 1 .729-.284.81.81 0 0 1 .59.186 2.08 2.08 0 0 1 .397.535 2.687 2.687 0 0 0 .906.979 2.727 2.727 0 0 0 1.432.323 2.072 2.072 0 0 0 1.206-.331.923.923 0 0 0 .47-.753 1.02 1.02 0 0 0-.494-.947 6.061 6.061 0 0 0-1.619-.566 13.32 13.32 0 0 1-2.063-.664 3.383 3.383 0 0 1-1.27-.914 2.088 2.088 0 0 1-.478-1.392 2.428 2.428 0 0 1 .437-1.392 3.018 3.018 0 0 1 1.295-1.044 4.969 4.969 0 0 1 2.071-.388 6.805 6.805 0 0 1 1.708.194 4.265 4.265 0 0 1 1.27.534 2.622 2.622 0 0 1 .81.737 1.44 1.44 0 0 1 .267.809.914.914 0 0 1-.284.688 1.117 1.117 0 0 1-.809.267.987.987 0 0 1-.64-.219 4.232 4.232 0 0 1-.606-.647 2.225 2.225 0 0 0-.656-.575 2.063 2.063 0 0 0-1.027-.218 2.007 2.007 0 0 0-1.109.283.81.81 0 0 0-.437.704.76.76 0 0 0 .324.631 2.679 2.679 0 0 0 .874.405q.55.162 1.505.404a8.092 8.092 0 0 1 1.861.664 3.1 3.1 0 0 1 1.093.914 2.023 2.023 0 0 1 .372 1.198zM33.054 41.949a3.925 3.925 0 0 0 1.27-1.918 2.266 2.266 0 0 0-1.27-2.913c-3.722-1.886-6.126 1.472-6.474 2.265s-.97 2.023-.566 4.856 1.756 5.446 6.029 6.473a18.102 18.102 0 0 0 12.138-1.416c3.77-1.796 10.843-4.952 12.624-5.26a15.488 15.488 0 0 1 3.568-.445v-4.313a9.88 9.88 0 0 0-9.565-5.033c-6.821.534-9.532 4.046-11.191 5.551s-4.742 5.05-6.798 4.427-2.646-3.173-1.917-3.966 1.294-.647 1.756 0a3.431 3.431 0 0 1 .404 1.692z"/><path d="M87.45 41.949a3.925 3.925 0 0 1-1.27-1.918 2.266 2.266 0 0 1 1.27-2.913c3.722-1.886 6.125 1.472 6.473 2.265s.971 2.023.567 4.856-1.756 5.446-6.029 6.473a18.102 18.102 0 0 1-12.138-1.416c-3.771-1.796-10.844-4.952-12.624-5.26a15.488 15.488 0 0 0-3.569-.445v-4.313a9.88 9.88 0 0 1 9.565-5.033c6.822.534 9.533 4.046 11.192 5.551s4.742 5.05 6.797 4.427 2.646-3.173 1.918-3.966-1.295-.647-1.756 0a3.431 3.431 0 0 0-.405 1.692z"/></symbol><symbol viewBox="0 0 32 32" id="handlebars-notext" xmlns="http://www.w3.org/2000/svg"><path d="M3.34 15.658c.282-.232.488-.543.59-.893a1.055 1.055 0 0 0-.59-1.356c-1.733-.878-2.852.686-3.014 1.05s-.448.942-.267 2.26.817 2.535 2.806 3.014c1.903.442 3.9.21 5.65-.66l5.88-2.452a7.21 7.21 0 0 1 1.661-.207V14.41a4.6 4.6 0 0 0-4.453-2.343c-3.176.25-4.438 1.884-5.2 2.584s-2.207 2.35-3.168 2.06-1.232-1.477-.893-1.842.606-.3.817 0c.13.242.194.513.188.787z"/><path d="M28.66 15.658a1.815 1.815 0 0 1-.59-.893 1.055 1.055 0 0 1 .59-1.356c1.733-.878 2.852.686 3.014 1.05s.448.942.267 2.26-.817 2.535-2.806 3.014c-1.903.442-3.9.21-5.65-.66l-5.88-2.452a7.21 7.21 0 0 0-1.661-.207V14.41a4.6 4.6 0 0 1 4.453-2.343c3.176.25 4.438 1.884 5.2 2.584s2.207 2.35 3.168 2.06 1.232-1.477.893-1.842-.606-.3-.817 0c-.13.242-.194.513-.188.787z"/></symbol><symbol fill="none" viewBox="0 0 124 141.532" id="html" xmlns="http://www.w3.org/2000/svg"><path d="M10.383 126.894 0 0l124 .255-10.979 126.639-50.553 14.638z" fill="#e34f26"/><path d="M62.468 129.277V12.085l51.064.17-9.106 104.851z" fill="#ef652a"/><path d="m99.49 41.362 1.446-15.49H22.383l4.34 47.49h54.213L78.81 93.617l-17.362 4.68-17.617-5.106-.936-12.085H27.319l2.128 24.681 32 8.936 32.255-8.936 4.34-48.17H41.107L39.49 41.362z" fill="#fff"/></symbol><symbol viewBox="0 0 800 180" style="enable-background:new 0 0 800 180" xml:space="preserve" id="mapbox" xmlns="http://www.w3.org/2000/svg"><path d="M594.6 49.8c-9.9 0-19.4 4.1-26.3 11.3V23c0-1.2-1-2.2-2.2-2.2h-13.4c-1.2 0-2.2 1-2.2 2.2v103c0 1.2 1 2.2 2.2 2.2h13.4c1.2 0 2.2-1 2.2-2.2v-7.1c6.9 7.2 16.3 11.3 26.3 11.3 20.9 0 37.8-18 37.8-40.2s-16.9-40.2-37.8-40.2zm-3.1 64.3c-12.7 0-23-10.6-23.1-23.8v-.6c.2-13.2 10.4-23.8 23.1-23.8 12.8 0 23.1 10.8 23.1 24.1s-10.4 24.1-23.1 24.1zM681.7 49.8c-22.6 0-40.9 18-40.9 40.2s18.3 40.2 40.9 40.2c22.6 0 40.9-18 40.9-40.2s-18.3-40.2-40.9-40.2zm-.1 64.3c-12.8 0-23.1-10.8-23.1-24.1s10.4-24.1 23.1-24.1 23.1 10.8 23.1 24.1-10.4 24.1-23.1 24.1zM431.6 51.8h-13.4c-1.2 0-2.2 1-2.2 2.2v7.1c-6.9-7.2-16.3-11.3-26.3-11.3-20.9 0-37.8 18-37.8 40.2s16.9 40.2 37.8 40.2c9.9 0 19.4-4.1 26.3-11.3v7.1c0 1.2 1 2.2 2.2 2.2h13.4c1.2 0 2.2-1 2.2-2.2V54c0-1.2-1-2.2-2.2-2.2zm-38.8 62.3c-12.8 0-23.1-10.8-23.1-24.1s10.4-24.1 23.1-24.1c12.7 0 23 10.6 23.1 23.8v.6c-.1 13.2-10.4 23.8-23.1 23.8zM498.5 49.8c-9.9 0-19.4 4.1-26.3 11.3V54c0-1.2-1-2.2-2.2-2.2h-13.4c-1.2 0-2.2 1-2.2 2.2v103c0 1.2 1 2.2 2.2 2.2H470c1.2 0 2.2-1 2.2-2.2v-38.1c6.9 7.2 16.3 11.3 26.3 11.3 20.9 0 37.8-18 37.8-40.2s-16.9-40.2-37.8-40.2zm-3.1 64.3c-12.7 0-23-10.6-23.1-23.8v-.6c.2-13.2 10.4-23.8 23.1-23.8 12.8 0 23.1 10.8 23.1 24.1s-10.3 24.1-23.1 24.1zM311.8 49.8c-10 .1-19.1 5.9-23.4 15-4.9-9.3-14.7-15.1-25.2-15-8.2 0-15.9 4-20.7 10.6V54c0-1.2-1-2.2-2.2-2.2h-13.4c-1.2 0-2.2 1-2.2 2.2v72c0 1.2 1 2.2 2.2 2.2h13.4c1.2 0 2.2-1 2.2-2.2V82.9c.5-9.6 7.2-17.3 15.4-17.3 8.5 0 15.6 7.1 15.6 16.4v44c0 1.2 1 2.2 2.2 2.2h13.5c1.2 0 2.2-1 2.2-2.2l-.1-44.8c1.2-8.8 7.5-15.6 15.2-15.6 8.5 0 15.6 7.1 15.6 16.4v44c0 1.2 1 2.2 2.2 2.2h13.5c1.2 0 2.2-1 2.2-2.2l-.1-49.5c0-14.8-12.6-26.7-28.1-26.7zM794.7 125.1l-23.2-35.3 23-35c.6-.9.3-2.2-.6-2.8-.3-.2-.7-.3-1.1-.3h-15.5c-1.2 0-2.3.6-2.9 1.6L760.9 76l-13.5-22.6c-.6-1-1.7-1.6-2.9-1.6H729c-1.1 0-2 .9-2 2 0 .4.1.8.3 1.1l23 35-23.2 35.3c-.6.9-.3 2.2.6 2.8.3.2.7.3 1.1.3h15.5c1.2 0 2.3-.6 2.9-1.6l13.8-23 13.8 23c.6 1 1.7 1.6 2.9 1.6H793c1.1 0 2-.9 2-2 0-.4-.1-.8-.3-1.2zM93.9 1.1C44.8 1.1 5 40.9 5 90s39.8 88.9 88.9 88.9 88.9-39.8 88.9-88.9c0-49.1-39.8-88.9-88.9-88.9zm42.2 110.7c-30.4 30.4-84.7 20.7-84.7 20.7s-9.8-54.2 20.7-84.7C89 30.9 117 31.6 134.7 49.2s18.3 45.7 1.4 62.6z"/><path d="m104.1 53.2-8.7 17.9-17.9 8.7 17.9 8.7 8.7 17.9 8.7-17.9 17.9-8.7-17.9-8.7z"/></symbol><symbol viewBox="0 0 1024 1024" id="mapbox-notext" xmlns="http://www.w3.org/2000/svg"><path d="M0 512c0 283 229 512 512 512s512-229 512-512S795 0 512 0 0 229 0 512z"/><path d="M747 277c-102-101-263-105-361-8-175 176-119 488-119 488s313 56 488-119c97-98 94-260-8-361zM621 503l-50 103-50-103-103-50 103-50 50-103 50 103 103 50z" fill="#fff"/></symbol><symbol id="mongodb" viewBox="0 0 1112.61 300" xmlns="http://www.w3.org/2000/svg"><defs><style>.kcls-4{fill:#21313c}</style></defs><path d="M134.44 120.34C119.13 52.8 87.22 34.82 79.08 22.11a144.57 144.57 0 0 1-8.9-17.42c-.43 6-1.22 9.78-6.32 14.33-10.24 9.13-53.73 44.57-57.39 121.31-3.41 71.55 52.6 115.67 60 120.23 5.69 2.8 12.62.06 16-2.51 27-18.53 63.89-67.93 52-137.71" style="fill:#10aa50"/><path d="M72.5 222.46c-1.41 17.71-2.42 28-6 38.12 0 0 2.35 16.86 4 34.72h5.84a324.73 324.73 0 0 1 6.37-37.39c-7.56-3.72-9.92-19.91-10.21-35.45Z" style="fill:#b8c4c2"/><path d="M82.7 257.92c-7.64-3.53-9.85-20.06-10.19-35.46a725.83 725.83 0 0 0 1.65-76.35c-.4-13.36.19-123.74-3.29-139.9a134.29 134.29 0 0 0 8.21 15.89c8.14 12.72 40.06 30.7 55.36 98.24C146.36 190 109.67 239.27 82.7 257.92Z" style="fill:#12924f"/><path class="kcls-4" d="M1089.7 233.5a16.59 16.59 0 1 1 16.59-16.82 16.38 16.38 0 0 1-16.59 16.82m0-31.68a15.1 15.1 0 1 0 15 15.14 14.85 14.85 0 0 0-15-15.14m4 25.58-4.28-9.23h-3.45v9.23h-2.51v-21h6.19c4.61 0 6.53 2 6.53 5.87 0 3.08-1.45 5-4.15 5.59l4.42 9.51Zm-7.63-11.4h3.63c2.94 0 4.06-1 4.06-3.68s-1.07-3.59-4.38-3.59h-3.31ZM842.79 218.38c4.49 3.59 13.46 5.07 21.37 5.07 10.25 0 20.3-1.9 30.12-10.77 10-9.09 16.88-23 16.88-45.21 0-21.34-8.12-38.66-24.78-48.8-9.4-5.91-21.58-8.24-35.47-8.24-4 0-8.12.21-10.46 1.27a5.49 5.49 0 0 0-1.93 3c-.42 3.8-.42 32.74-.42 49.85 0 17.54 0 42 .42 45 .22 2.54 1.5 7 4.27 8.87m-42.64-117.49c3.63 0 17.43.63 23.85.63 12 0 20.29-.63 42.72-.63 18.8 0 34.62 5.07 45.93 14.78 13.68 11.84 21 28.31 21 48.38 0 28.52-13 45-26.07 54.29-13 9.72-29.91 15.21-54 15.21-12.82 0-34.83-.42-53.2-.63H800c-.86-1.69 1.57-8.28 3.07-8.45 5-.56 6.32-.76 8.62-1.71 3.88-1.59 4.79-3.57 5.22-10.54.64-13.1.43-28.73.43-46.48 0-12.67.21-37.39-.21-45.21-.65-6.54-3.41-8.23-9-9.5a116.24 116.24 0 0 0-12-1.9c-.42-1.27 2.86-7 3.93-8.24M986.6 111.65c-.85.21-1.92 2.33-1.92 3.38-.22 7.61-.43 27.46-.43 41.19a1.36 1.36 0 0 0 1.07 1.06c2.77.21 9.61.43 15.38.43 8.12 0 12.82-1.06 15.38-2.33 6.84-3.38 10-10.78 10-18.8 0-18.38-12.82-25.35-31.83-25.35a57.35 57.35 0 0 0-7.69.42m48.5 84.5c0-18.59-13.68-29.15-38.68-29.15-1.06 0-9-.21-10.89.21-.64.21-1.28.63-1.28 1.06 0 13.31-.22 34.64.43 43.09.43 3.59 3 8.66 6.19 10.14 3.42 1.9 11.11 2.32 16.45 2.32 14.74 0 27.78-8.23 27.78-27.67M948 101.3c1.93 0 7.61.63 22.14.63 13.67 0 24.78-.42 38-.42 16.45 0 39.09 5.92 39.09 30.42 0 12-8.54 21.76-19.65 26.41-.64.21-.64.63 0 .84 15.81 4 29.69 13.73 29.69 32.32 0 18.17-11.32 29.58-27.77 36.76-10 4.44-22.43 5.91-35 5.91-9.61 0-35.37-1-49.69-.84-1.5-.63 1.37-7.4 2.65-8.45a39.38 39.38 0 0 0 9.69-1.52c5.12-1.26 5.73-2.91 6.37-10.52.43-6.55.43-30 .43-46.69 0-22.82.22-38.23 0-45.84-.21-5.91-2.35-7.82-6.41-8.87-3.2-.64-8.54-1.27-12.81-1.9-1.07-1.06 2.22-7.4 3.28-8.24M181.75 233.5a9.26 9.26 0 0 1-.65-4.27 5.43 5.43 0 0 1 .65-2.85 72.58 72.58 0 0 0 8.2-1.67c3.78-.94 5.2-3 5.42-7.82.62-11.39.66-32.76.44-47.78v-.44c0-1.62 0-3.82-2-5.37a42.94 42.94 0 0 0-11.33-5c-1.79-.53-2.78-1.47-2.73-2.57s1.18-2.4 3.51-2.86c6.19-.63 22.41-4.5 28.78-7.44a4.22 4.22 0 0 1 .85 3c0 .66-.1 1.36-.17 2.08-.18 2.12-.38 4.53-.38 6.93a1.58 1.58 0 0 0 2.68.91c12.13-9.51 23-12.9 28.57-12.9 9.17 0 16.31 4.38 21.84 13.4a1.47 1.47 0 0 0 1.24.73 1.42 1.42 0 0 0 1.16-.62c11.15-8.46 22.2-13.51 29.6-13.51 17.48 0 27.93 13.09 27.93 35 0 6.3-.06 14.29-.12 21.74-.05 6.54-.1 12.67-.1 16.91 0 1 1.38 3.88 3.45 4.45 2.56 1.25 6.25 1.89 10.92 2.69h.18c.35 1.26-.39 6.15-1.1 7.15-1.16 0-2.76-.1-4.76-.2-3.63-.18-8.61-.43-14.4-.43-11.62 0-17.69.22-23.49.6-.44-1.45-.59-6.13-.06-7.11a61.55 61.55 0 0 0 7.12-1.55c3.7-1.22 4.77-2.9 5-7.81.09-3.49.76-34.24-.43-41.54-1.1-7.57-6.8-16.43-19.27-16.43-4.63 0-12.1 1.93-19.22 7.33a2.8 2.8 0 0 0-.7 1.81v.15c.84 3.94.84 8.54.84 15.49 0 4 0 8.17-.05 12.34-.05 8.48-.09 16.48.05 22.53 0 4.12 2.49 5.11 4.5 5.9 1.09.24 1.95.45 2.82.65 1.67.41 3.41.83 6 1.24a11.49 11.49 0 0 1-.1 5.32 4.26 4.26 0 0 1-.75 1.81c-6.46-.22-13.09-.41-22.66-.41-2.9 0-7.63.12-11.81.23-3.39.09-6.59.18-8.41.19a8.24 8.24 0 0 1-.64-3.68 6.38 6.38 0 0 1 .67-3.44l2.57-.47c2.24-.4 4.18-.74 6-1.2 3.16-1 4.35-2.72 4.58-6.75.62-9.4 1.1-36.49-.23-43.27-2.26-10.88-8.45-16.4-18.41-16.4-5.83 0-13.2 2.81-19.22 7.32a5.86 5.86 0 0 0-1.77 4.35v11.19c0 13.6-.09 30.53.24 37.85.2 2.26 1 4.94 5.23 5.92.93.27 2.53.53 4.39.84 1.07.18 2.24.37 3.45.59a15.16 15.16 0 0 1-.57 7.15c-1.86 0-4.15-.12-6.77-.23-4-.18-9-.4-14.65-.4-6.68 0-11.33.22-15.06.4-2.51.12-4.68.22-6.85.23M396.2 154.49a18.22 18.22 0 0 0-10.2 2.87c-7.42 4.51-11.2 13.52-11.2 26.76 0 24.78 12.41 42.09 30.18 42.09A19 19 0 0 0 418 221.6c5.46-4.45 8.36-13.55 8.36-26.29 0-24.41-12.13-40.82-30.18-40.82m3.42 80.91c-32.1 0-43.53-23.55-43.53-45.58 0-15.39 6.29-27.42 18.7-35.77a57.11 57.11 0 0 1 28.89-8.54c24.49 0 41.6 17.61 41.6 42.84 0 17.14-6.83 30.68-19.76 39.14-6.21 3.8-17 7.91-25.9 7.91M723 154.49a18.17 18.17 0 0 0-10.22 2.87c-7.42 4.51-11.2 13.52-11.2 26.76 0 24.78 12.41 42.09 30.18 42.09a19 19 0 0 0 13.06-4.61c5.46-4.45 8.35-13.55 8.35-26.29 0-24.41-12.12-40.82-30.17-40.82m3.42 80.91c-32.1 0-43.53-23.55-43.53-45.57 0-15.41 6.29-27.43 18.71-35.78a57 57 0 0 1 28.88-8.54c24.49 0 41.6 17.62 41.6 42.83 0 17.16-6.83 30.69-19.76 39.14-6.21 3.81-17 7.92-25.9 7.92M614.92 153.65c-9.89 0-16.29 7.81-16.29 19.9s5.51 26.46 21 26.46c2.66 0 7.48-1.18 9.87-3.81 3.6-3.31 6-10.15 6-17.37 0-15.77-7.68-25.18-20.53-25.18m-1.28 83.44a16.29 16.29 0 0 0-8 2c-7.83 5-11.46 10-11.46 15.81 0 5.44 2.11 9.77 6.65 13.61 5.5 4.66 12.92 6.93 22.67 6.93 19.19 0 27.79-10.32 27.79-20.54 0-7.12-3.57-11.89-10.92-14.59-5.66-2.07-15.12-3.21-26.7-3.21m1.28 49c-11.52 0-19.82-2.43-26.91-7.89-6.9-5.32-10-13.22-10-18.68a14.61 14.61 0 0 1 3.78-9.5c2-2.28 6.65-6.55 17.4-13.94a.92.92 0 0 0 .56-.85.89.89 0 0 0-.68-.88c-8.85-3.39-11.52-9-12.33-12 0-.11 0-.28-.09-.47-.25-1.18-.49-2.3 1.12-3.45 1.24-.88 3.22-2.06 5.34-3.31a71.89 71.89 0 0 0 8.59-5.59 1.41 1.41 0 0 0-.36-2.2c-13.1-4.4-19.7-14.13-19.7-29a28.83 28.83 0 0 1 12.1-23.73c5.27-4.17 18.5-9.18 27.07-9.18h.5c8.81.21 13.78 2.06 20.66 4.6a32.84 32.84 0 0 0 12.22 1.94c7.29 0 10.48-2.31 13.22-5a11.47 11.47 0 0 1 .7 3.78 14.22 14.22 0 0 1-2.38 8.68c-1.49 2.07-5 3.57-8.21 3.57-.33 0-.65 0-1-.05a26.94 26.94 0 0 1-5-.83l-.82.29c-.26.38-.09.8.12 1.34a1.7 1.7 0 0 1 .12.33 58.52 58.52 0 0 1 1.19 8.1c0 15.55-6.13 22.32-12.76 27.34a43.56 43.56 0 0 1-22 8.52c-.17 0-1 .07-2.56.21-1 .09-2.3.21-2.49.21h-.19c-1.44.4-5.2 2.19-5.2 5.52 0 2.76 1.7 6.19 9.83 6.81l5.26.37c10.72.75 24.11 1.68 30.41 3.81a21.06 21.06 0 0 1 14.07 20.27c0 13.95-9.92 27.07-26.53 35.09a57.66 57.66 0 0 1-25.09 5.63M565.86 226.06c-4.7-.63-8.13-1.27-12.18-3.17a5.6 5.6 0 0 1-1.5-3c-.43-6.55-.43-25.56-.43-38 0-10.15-1.7-19-6-25.35-5.13-7.19-12.39-11.41-21.79-11.41-8.33 0-19.44 5.7-28.62 13.52-.22.21-1.63 1.55-1.6-.53s.35-6.3.55-9a4.63 4.63 0 0 0-1.4-3.92c-6 3-22.83 7-29.06 7.61-4.54.88-5.69 5.25-.84 6.76h.07a41.46 41.46 0 0 1 11 4.84c1.92 1.48 1.71 3.59 1.71 5.28.21 14.15.21 35.91-.43 47.74-.21 4.65-1.5 6.34-4.92 7.19l.32-.11a66.46 66.46 0 0 1-7.91 1.48c-1.07 1.05-1.07 7.18 0 8.45 2.14 0 13-.63 22-.63 12.38 0 18.79.63 22 .63 1.29-1.48 1.71-7.18.86-8.45a45 45 0 0 1-8.77-1.27c-3.41-.84-4.27-2.54-4.48-6.33-.42-9.94-.42-31.06-.42-45.43 0-4 1.06-5.91 2.34-7 4.27-3.8 11.33-6.33 17.52-6.33 6 0 10 1.9 13 4.43A18.1 18.1 0 0 1 533 176c.85 8 .63 24.09.63 38 0 7.61-.63 9.52-3.41 10.36-1.28.63-4.7 1.27-8.76 1.69-1.28 1.27-.86 7.18 0 8.45 5.55 0 12-.63 21.36-.63 11.75 0 19.23.63 22.22.63 1.28-1.48 1.71-7 .86-8.45"/></symbol><symbol viewBox="8.738 -5.036 17.46 39.406" id="mongodb-notext" xmlns="http://www.w3.org/2000/svg"><path d="m15.9.087.854 1.604c.192.296.4.558.645.802a22.406 22.406 0 0 1 2.004 2.266c1.447 1.9 2.423 4.01 3.12 6.292.418 1.394.645 2.824.662 4.27.07 4.323-1.412 8.035-4.4 11.12a12.7 12.7 0 0 1-1.57 1.342c-.296 0-.436-.227-.558-.436a3.589 3.589 0 0 1-.436-1.255c-.105-.523-.174-1.046-.14-1.586v-.244C16.057 24.21 15.796.21 15.9.087z" fill="#599636"/><path d="M15.9.034c-.035-.07-.07-.017-.105.017.017.35-.105.662-.296.96-.21.296-.488.523-.767.767-1.55 1.342-2.77 2.963-3.747 4.776-1.3 2.44-1.97 5.055-2.16 7.808-.087.993.314 4.497.627 5.508.854 2.684 2.388 4.933 4.375 6.885.488.47 1.01.906 1.55 1.325.157 0 .174-.14.21-.244a4.78 4.78 0 0 0 .157-.68l.35-2.614z" fill="#6cac48"/><path d="M16.754 28.845c.035-.4.227-.732.436-1.063-.21-.087-.366-.26-.488-.453a3.235 3.235 0 0 1-.26-.575c-.244-.732-.296-1.5-.366-2.248v-.453c-.087.07-.105.662-.105.75a17.37 17.37 0 0 1-.314 2.353c-.052.314-.087.627-.28.906 0 .035 0 .07.017.122.314.924.4 1.865.453 2.824v.35c0 .418-.017.33.33.47.14.052.296.07.436.174.105 0 .122-.087.122-.157l-.052-.575v-1.604c-.017-.28.035-.558.07-.82z" fill="#c2bfbf"/></symbol><symbol viewBox="65.1 102.4 367.4 295.2" id="mssql" xmlns="http://www.w3.org/2000/svg"><linearGradient id="la" gradientTransform="scale(115.9464 -115.9464) rotate(30.578 8.401 .224)" gradientUnits="userSpaceOnUse" x1="1.511" x2="1.657" y1="1.192" y2="1.192"><stop offset="0" stop-color="#909ca9"/><stop offset="1" stop-color="#ededee"/></linearGradient><linearGradient id="lb" gradientTransform="matrix(80.3196 0 0 -80.3196 150.725 -619.331)" gradientUnits="userSpaceOnUse" x1=".981" x2="1.127" y1="-9.224" y2="-9.224"><stop offset="0" stop-color="#939fab"/><stop offset="1" stop-color="#dcdee1"/></linearGradient><radialGradient id="lc" cx="1.935" cy="2.23" gradientTransform="matrix(-102.4055 -15.3824 -31.1105 204.8109 556.169 -251.717)" gradientUnits="userSpaceOnUse" r=".146"><stop offset="0" stop-color="#ee352c"/><stop offset="1" stop-color="#a91d22"/></radialGradient><path d="m315 196.4-40.3 13.2-35.1 15.5-9.8 2.6c-2.5 2.4-5.1 4.8-8 7.2-3.1 2.7-6 5.1-8.2 6.9-2.5 2-6.1 5.6-8 7.9-2.8 3.5-5 7.2-5.9 10-1.7 5.1-.9 10.3 2.4 15.1 4.1 6.1 12.4 12.3 22 16.5 4.9 2.2 13.2 4.9 19.4 6.5 10.3 2.6 30.3 5.5 41.3 5.9 2.2.1 5.2.1 5.3 0 .2-.2 2-3.4 3.9-7.5 6.8-13.8 11.6-26.8 14.3-37.8 1.6-6.7 2.8-15.6 3.7-26.2.2-3 .3-12.9.1-16.2-.3-5.5-.8-9.9-1.5-14.3-.1-.6-.2-1.2-.1-1.2.1-.1.5-.2 5.5-1.6zm-9.2 5.4c.4 0 1.3 9.4 1.6 15.3.1 1.2 0 2.1 0 2.1-.2 0-5.1-2.9-8.7-5.1-3-1.9-8.8-5.8-9.7-6.5-.3-.2-.3-.2 2.2-1.1 4.2-1.5 14.2-4.7 14.6-4.7zm-20.6 6.8c.3 0 1 .4 2.7 1.4 6.3 3.9 14.8 8.7 18.5 10.3 1.1.5 1.2.3-1.3 2.1-5.5 3.8-12.5 7.5-20.9 11.2-1.5.7-2.7 1.2-2.8 1.2s.1-.8.4-1.7c2-7.6 3.2-15.3 3.3-21.4-.2-3.1-.2-3.1.1-3.1zm-4.2 1.6c.2.2.1 7-.2 8.9-.5 4.4-1.4 8.6-2.8 13.3-.3 1.1-.6 2.1-.7 2.1-.1.2-4.3-3.9-5.7-5.5-2.4-2.7-4.2-5.5-5.6-8.2-.7-1.4-1.8-4.1-1.7-4.1.5-.4 16.6-6.6 16.7-6.5zm-19.9 7.8c.2.1.4.6.5 1.1 1 2.7 3.2 6.6 5.1 9 2.1 2.7 4.8 5.7 7 7.6.7.6 1.4 1.2 1.5 1.3.2.2.2.2-4.7 2-5.8 2.2-12 4.4-19.2 6.7-1.7.6-3.4 1.1-5.1 1.7-.3.1-.2-.1.6-1.3 3.6-5.6 9-16.5 12-24.3.5-1.3 1-2.7 1.1-3 .1-.4.3-.6.7-.8.2.1.4 0 .5 0zm-6.1 2.5c.1.1-1.5 3.3-3 6.3-3 5.8-6.2 11.4-10.5 18.3-.7 1.2-1.4 2.3-1.5 2.4-.2.2-.2.2-.7-.8-1-2-1.9-4.7-2.3-7.1-.5-2.4-.4-6.5.2-9.1.4-1.9.4-1.9 1.3-2.3 3.7-1.9 16.3-7.8 16.5-7.7zm52.5 2.2v1.3c0 6.8-.7 16.1-1.8 22.9-.2 1.2-.3 2.2-.4 2.2 0 0-.9-.2-1.9-.5-4.6-1.4-9.5-3.5-14-6-3-1.6-7.3-4.3-7.1-4.4 0 0 1.3-.7 2.8-1.5 6-3.1 11.7-6.5 16.7-9.8 1.9-1.2 4.7-3.3 5.3-3.8zm-75.5 9c.1 0 .1.2-.1 1.3-.1.8-.3 2.3-.3 3.3-.2 4.4.5 7.7 2.7 12.2.6 1.2 1.1 2.3 1.1 2.3-.2.2-20.4 6.1-26.7 7.8-1.9.5-3.5 1-3.7 1-.2.1-.2 0-.2-.5.7-4.5 4.1-10.3 8.9-15.3 3.2-3.3 5.7-5.2 10-7.7 3.1-1.6 7.8-4.3 8.3-4.4-.1 0-.1 0 0 0zm47.5 8.5s.8.4 1.6.9c6.5 3.8 15.6 7.3 23.3 9.1l.7.2-1 .5c-4.1 2.3-17.4 7.8-31 12.9-2 .7-3.9 1.5-4.3 1.6-.4.2-.7.2-.7.2s.5-1.1 1.2-2.4c3.8-7.1 7.6-15.8 9.6-21.8.4-.7.6-1.2.6-1.2zm-4.8 1.6s-.2.7-.5 1.4c-2.7 6.4-6.1 13.4-10.6 21.3-1.1 2-2.1 3.6-2.1 3.6s-.9-.5-2-1.2c-6.5-4-12.2-8.8-15.9-13.6l-.5-.7 2.8-.8c9.9-2.7 18.4-5.6 26.8-9.2.9-.4 1.9-.8 2-.8zm30.1 10.5c0 .7-1.5 7-2.8 11.5-1.1 3.8-2 6.8-3.7 12.1-.7 2.3-1.4 4.2-1.4 4.2s-.2 0-.4-.1c-9-1.6-17.2-3.9-24.8-7-2.1-.9-5.2-2.2-5.4-2.4-.1-.1 1.8-.9 4.1-1.9 13.9-6.1 28.2-12.9 33.2-15.9.6-.3 1.1-.5 1.2-.5zm-69.5 2.4c.1.1-3.8 5.6-9.2 13.2-1.9 2.7-4.1 5.8-4.9 6.9-.8 1.2-2.1 3-2.8 4.1l-1.3 2-1.4-1.2c-1.6-1.3-4.4-4.2-5.7-5.8-2.6-3.3-4.4-6.7-5.1-9.8-.3-1.5-.3-2.2 0-2.3.5-.1 8.6-2 16.2-3.8 4.2-1 9.1-2.1 10.9-2.6 1.8-.4 3.2-.7 3.3-.7zm3.9 1.5 1 1.1c4.4 4.9 8.9 8.5 14.3 11.7 1 .5 1.7 1 1.6 1.1-.2.2-18.8 6.8-27.5 9.7-4.8 1.7-8.8 3.1-8.9 3.1l-.6-.4-.5-.4.9-1.3c2.9-4.1 6.5-8.7 14.3-18.1zm24.3 17.4s1.4.5 3 1.1c4 1.5 7.1 2.4 11.3 3.5 5.2 1.3 12.7 2.6 17.1 3 .7.1 1 .1.9.2-.2.1-4.7 1.6-8 2.7-5.2 1.6-21.2 6.4-34.3 10.1-2.4.7-4.5 1.3-4.6 1.3-.3.1-1.3-.2-1.3-.3s.7-1 1.6-2c4.4-5.2 8.7-11.1 12.4-16.6 1-1.8 1.9-3 1.9-3zm-5.4.1s-2.1 3.5-5.9 9.5c-1.6 2.5-3.4 5.4-4.1 6.4-.6 1-1.5 2.5-2 3.4l-.9 1.6-.5-.1c-1.1-.3-8.8-3-10.8-3.8-2.5-1-5.1-2.2-7.1-3.3-2.4-1.3-5.5-3.3-5.2-3.3.1 0 4.2-1.2 9.3-2.5 13.3-3.6 20.7-5.7 25.6-7.3.8-.4 1.6-.6 1.6-.6zm37.9 8.9c.2.3-4.8 14-6.6 18.3-.4 1-.5 1.2-.8 1.2-.5 0-7.7-1-12-1.7-7.6-1.2-20.3-3.4-23.5-4.1l-.7-.2 4.5-1c9.8-2.2 14.4-3.4 19.2-4.8 6-1.8 11.9-4.1 17.9-6.9 1-.4 1.8-.8 2-.8z" fill="url(#la)"/><path d="M273.4 102.5c-.7-.1-11.5 3.8-18.5 6.6-9.4 3.8-16.7 7.5-21.2 10.7-1.7 1.2-3.8 3.3-4.1 4.1-.1.3-.2.7-.2 1l4.1 3.9 9.7 3.1 23.1 4.1 26.4 4.5.3-2.3h-.2l-3.5-.5-.7-1.2c-3.6-6.3-7.6-14.2-9.9-19.5-1.8-4.1-3.5-8.9-4.4-12.3-.5-2.1-.6-2.2-.9-2.2zm-.5 1.5c.1 0 .2.9.3 1.9.5 4.3 1.5 8.4 3 12.8 1.1 3.4 1.1 3.2-.2 2.8-3.1-.9-17-3.3-27.1-4.7-1.6-.2-3-.4-3-.5-.1-.1 7.3-4 10.5-5.5 4.2-1.9 15.7-6.6 16.5-6.8zm-29.4 13.7 1.2.4c6.5 2.2 22.7 5.3 31.7 6 1 .1 1.9.2 1.9.2s-.8.5-1.9 1c-4.3 2.2-9.1 4.8-12.4 6.9-1 .6-1.9 1.1-2 1.1s-.8-.1-1.4-.2l-1.2-.2-3-3c-5.4-5.2-9.6-9.2-11.2-10.8zm-1.2.9 4.3 5.4c2.3 3 4.7 5.8 5.2 6.5.5.6.9 1.2.9 1.2-.1.1-6.2-1.1-9.4-1.8-3.3-.8-4.7-1.1-6.7-1.8l-1.7-.5v-.4c0-2 2.6-5.1 7-8.2zm36.5 7.3c.1 0 .3.3.6 1.1 1 2.3 4.3 8.4 5.1 9.6.2.4.7.4-3.6-.3-10.3-1.7-13.6-2.2-13.6-2.3 0 0 .3-.2.7-.5 3.2-1.8 6.4-4 9.3-6.4.7-.6 1.3-1.1 1.5-1.2-.1 0 0 0 0 0z" fill="url(#lb)"/><path d="M229.8 123.4s-.7 1.1 0 2.7c.4 1 1.6 2.2 2.9 3.4 0 0 13.6 13.2 15.2 15.1 7.5 8.7 10.8 17.2 11.1 28.9.2 7.6-1.2 14.2-4.8 21.9-6.3 13.8-19.7 29.1-40.3 46l3-1c1.9-1.5 4.6-3 10.8-6.4 14.4-7.9 30.5-15.1 50.3-22.5 28.5-10.7 75.4-23.3 102.1-27.4l2.8-.4-.4-.7c-2.4-3.8-4.1-6.1-6.1-8.6-5.8-7.3-12.9-13.1-21.6-18-11.9-6.7-27.4-11.9-47-15.8-3.7-.7-11.8-2.1-18.4-3.1-14-2.2-23-3.7-32.9-5.4-3.6-.6-8.9-1.5-12.4-2.3-1.8-.4-5.3-1.2-8.1-2.2-2.4-.7-5.5-1.6-6.2-4.2zm7.9 7.7s.5.2 1.2.4c1.2.4 2.7.9 4.4 1.3 1.3.4 2.7.7 4 1.1 1.8.5 3.4.9 3.4.9.2.2 3.3 10.1 4.3 13.8.4 1.4.7 2.7.7 2.7s-.4-.5-.8-1.2c-3.6-6.3-9.2-12.6-15.7-17.8-.9-.7-1.5-1.2-1.5-1.2zm15 4.1c.2 0 .8.1 1.6.3 5.2 1.2 14.5 2.9 20.4 3.9 1 .2 1.8.3 1.8.4s-.4.3-.8.5c-1 .5-5.1 2.9-6.4 3.8-3.4 2.3-6.4 4.7-8.6 6.9l-1.6 1.6s-.2-.5-.3-1.2c-1.1-4.2-3.4-10.5-5.5-14.9-.4-.6-.7-1.3-.6-1.3-.1 0-.1 0 0 0zm26.3 5c.2.1.5 1.1 1.1 3.4 1.1 4.4 1.6 9.4 1.5 14-.1 1.3-.1 2.5-.2 2.6l-.1.3-1.6-.5c-3.3-1-8.6-2.6-13.1-3.9-2.6-.7-4.7-1.3-4.7-1.4 0-.2 3.8-4 5.4-5.4 3.1-2.7 11.5-9.2 11.7-9.1zm2.1.3c.1-.1 12.6 2.1 18.3 3.2 4.2.8 10.4 2.1 10.8 2.3.2.1-.5.4-2.5 1.3-8 3.6-14 6.9-20 10.8-1.6 1-2.9 1.9-2.9 1.9s-.1-.9-.1-1.9c0-5.8-1.2-11.6-3.3-16.6-.1-.5-.3-.9-.3-1zm32.4 6.4c.1.1-.3 2.6-.7 4-1.1 4.5-4.1 11.3-7.7 17.6-.6 1.1-1.2 2-1.3 2.1-.1 0-.9-.4-1.8-1-3.5-2.1-7.6-4-11.9-5.8-1.2-.5-2.3-.9-2.3-1-.2-.2 9.6-6.7 14.8-9.8 4.1-2.5 10.8-6.2 10.9-6.1zm2.3.4c.3 0 5.8 1.5 8.7 2.4 7.2 2.1 15.4 5.1 20.7 7.6l2.2 1-1.6.4c-13.1 3-24.3 6.5-35.1 10.9-.9.4-1.7.7-1.7.7-.1 0 .2-.7.6-1.6 3.3-6.9 5.4-14.1 5.9-20.3.2-.6.3-1.1.3-1.1zM260.6 160c.1-.1 4.3.9 6.6 1.6 3.5 1 10.8 3.4 10.8 3.6 0 0-.8.7-1.8 1.6-4 3.3-7.8 6.8-12.4 11.3-1.4 1.3-2.5 2.4-2.6 2.4s-.1-.2-.1-.4c.7-5.1.5-11.7-.4-18.4 0-1-.1-1.7-.1-1.7zm89 .1c.1.1-2 3.2-3.2 5-1.8 2.6-4.5 6.1-10.6 13.7-3.2 4-6.8 8.6-8 10.1s-2.2 2.8-2.3 2.8c0 0-.4-.5-.9-1.2-3.4-5.1-7.5-9.6-12.3-13.6-.9-.8-1.9-1.6-2.3-1.8-.3-.2-.6-.5-.6-.5 0-.1 5.2-2.3 9.1-3.9 6.9-2.8 16.3-6.2 23.3-8.3 3.8-1.3 7.8-2.4 7.8-2.3zm2.4.6c.1 0 .9.3 1.7.9 7.4 4.2 14.7 9.7 20.4 15.3 1.6 1.6 5.6 5.7 5.5 5.8 0 0-1.4.1-3 .2-12.8 1-29.2 3.7-45 7.5-1.1.2-2 .5-2.1.5s1.1-1.2 2.6-2.6c9.3-8.9 13.5-14.6 18.5-24.6.7-1.7 1.3-2.9 1.4-3-.1 0-.1 0 0 0zm-67.9 6.9c.4.1 4.4 2 7.4 3.4 2.7 1.4 6.9 3.6 7.1 3.7 0 0-1.4.8-3.2 1.7-5.7 2.9-10.6 5.6-15.8 8.7-1.5.9-2.7 1.6-2.7 1.6-.1 0-.1-.1.7-1.6 2.7-5 4.9-11 6.2-16.8.1-.4.2-.7.3-.7zm-3.9.8c.1.1-.9 3.8-1.6 5.9-1.2 3.9-3.4 8.7-5.4 12.4-.5.9-1.2 2.1-1.6 2.8l-.8 1.2-1.7-1.6c-2-1.9-3.6-3.1-5.7-4.2-.8-.4-1.5-.8-1.5-.9 0-.2 5.2-5 9.2-8.4 2.9-2.5 9-7.3 9.1-7.2zm24.2 9.9 1.5 1c3.4 2.2 7.4 5.2 10.5 7.8 1.7 1.4 5.1 4.4 5.8 5.2l.4.4-2.5.7c-14 3.9-24.7 7.3-37.3 11.9-1.4.5-2.6.9-2.7.9-.2 0-.3.2 2.8-2.7 8-7.4 15.2-15.6 20.5-23.5zm-6.4 1.6c.1.1-4.1 5.9-6.6 9.3-3 4-8.3 10.6-11.9 14.9-1.5 1.8-2.8 3.3-2.9 3.3s-.1-.4-.1-1.1c0-3.7-.9-7.6-2.6-11-.7-1.4-.8-1.7-.7-1.9.6-.5 9.4-5.6 15.1-8.6 3.7-2 9.6-5 9.7-4.9zm-38.5 9.4c.1 0 .8.4 1.6.8 1.9 1.1 3.7 2.3 5.2 3.5.1.1-.7.7-1.8 1.5-2.9 2.1-7.3 5.4-9.8 7.4-2.7 2.1-2.8 2.2-2.5 1.7 2-3.1 3-4.8 4.1-7 .9-2 1.9-4.3 2.6-6.4.2-.8.5-1.5.6-1.5zm10.3 8.1c.2 0 .3.2 1.2 1.5 1.7 2.6 3.1 6.1 3.4 8.9l.1.6-4.2 1.6c-7.5 2.9-14.4 5.8-19 7.9-1.3.6-3.6 1.7-5.1 2.4-1.5.8-2.7 1.3-2.7 1.3s.9-.7 2.1-1.6c9.1-6.6 17-13.9 22.9-21.1.6-.8 1.2-1.5 1.3-1.5zm-4.7 1.1c.1.1-3.4 4.1-5.7 6.5-5.9 6-11.7 10.7-18.9 15.3-.9.6-1.7 1.1-1.8 1.2-.2.1.1-.2 3.2-3.6 2-2.2 3.5-4 5.3-6.2 1.2-1.5 1.4-1.7 3-2.9 4.4-3.4 14.7-10.4 14.9-10.3z" fill="url(#lc)"/><path d="M133.1 324.7c-.6 0-1.1.1-1.7.1-11.4.6-19 5.6-23.5 15.4-3.8 8.8-3.4 20.4 0 29.2 4 8.7 10.5 13.3 21.3 15 2.3.4 3.8 1.6 8.3 6.8l5.5 6.4h9.9l-6.6-6.6c-3.6-3.6-6.6-6.8-6.6-7.1s1.4-.9 3.1-1.4c5.6-1.7 10.2-6 13.4-12.6 2.6-5.3 3-6.9 3.4-13.5 1-19.6-9.3-31.8-26.5-31.7zm8.7 51.2c-4.8 2.3-11.8 2.8-16.4 1.1-4.7-1.7-9.3-6.6-11.4-12.2-2.3-6.1-2-17.3.7-22.3 4.2-8 9.8-11.7 17.9-11.7 12 0 18.9 7.4 19.8 21.2.7 11.6-3.2 20.3-10.6 23.9zm171.1-34.5c-4.2 0-7.3 1.7-9.5 5l-1.7 2.6v-6.8h-7.2v40.9h7.2V370c0-12 .1-13.4 1.8-16.6 2.3-4.5 6.3-6.7 10.1-5.7l2.6.7v-7.1zm-42.2-.4c-1.4 0-2.9.2-4.4.5-9.6 2.5-15 11.7-14.7 21.2 0 7.9 1.5 11.9 5.4 16.1 7.8 6.4 14.9 6.9 24.5 3.5 1.6-.7 3.4-1.5 3.4-1.5v-6.4l-3.4 1.8c-7.7 3.4-13.6 3.4-18.3-.6-3-3-4.3-6.7-4.9-10.8h29v-5.5c0-11.3-6.8-18.4-16.6-18.3zM259 359s1.1-7 5-9.8c1.9-1.3 4.1-2 6.3-2s4.3.7 6.1 2.1c3.6 2.8 4.3 9.7 4.3 9.7zm-173.4-7.4c-7.8-4.7-11.3-8.1-10.8-12.1 1.2-11.1 14.9-9.6 22.5-5.4l.1-7.5s-4.2-1.8-10.2-1.9c-9.2-.1-15.2 2.9-18 9.1-4.1 9.1-.5 16 12.7 23.6 7.4 4.3 10.7 8 10.7 12.1 0 8.4-10.1 11.3-20.6 6.1-2.2-1.1-4-2-4.1-2-.4 2.4-.2 8.1-.2 8.1s3.2 1.3 8 2.3c12 2.4 22.8-3.2 23.9-12.3.8-8.6-2.3-13.1-14-20.1zm291-10.6c-1.4 0-2.9.2-4.4.5-9.6 2.5-15 11.7-14.7 21.2 0 7.9 1.5 11.9 5.4 16 7.8 6.4 14.9 7 24.6 3.5 1.6-.7 3.4-1.5 3.4-1.5v-6.4l-3.4 1.8c-7.8 3.4-13.6 3.4-18.3-.6-3-3-4.3-6.6-4.9-10.8h28.9v-5.5c0-11.3-6.8-18.4-16.6-18.2zm-11.8 17.9s1.1-7 5-9.8c1.9-1.4 4.1-2 6.2-2s4.3.7 6.1 2.1c3.6 2.8 4.3 9.7 4.3 9.7zM233 351.7c-7.8-4.7-11.2-8.1-10.8-12.1 1.2-11.1 14.9-9.6 22.5-5.4l.1-7.5s-4.2-1.8-10.2-1.9c-9.2-.1-15.2 2.9-18 9.1-4.1 9.1-.4 16 12.7 23.6 7.4 4.3 10.6 8 10.6 12 0 8.4-10.1 11.4-20.6 6.1-2.1-1.1-4-2-4.1-2-.4 2.4-.2 8.1-.2 8.1s3.2 1.3 8 2.3c12 2.4 22.8-3.2 23.9-12.3.9-8.5-2.2-13-13.9-20zm185.8-10.4c-4.2 0-7.4 1.7-9.5 5l-1.7 2.6v-6.8h-7.2V383h7.2v-13c0-12 .1-13.4 1.8-16.6 2.3-4.5 6.3-6.7 10.1-5.6l2.6.7v-7.1zm-243 10.2v-26.1h-7.2v57.7h30.5v-6.8h-23.2zm167.7 8.1-6 15.5-5.7-15.6-5.8-17.3h-7.4c4.8 13.6 10 27.5 15.3 40.9 2.3.1 4.6 0 6.9 0l8.1-20.3 8.2-20.7H350c-.1.1-3.2 8.3-6.5 17.5zm-150.9-49.9c1.2 0 2.1-.4 2.9-1.2s1.2-1.7 1.2-2.9-.4-2.1-1.2-2.9c-.8-.7-1.7-1.1-2.9-1.1s-2.2.4-2.9 1.2c-.8.8-1.2 1.8-1.2 2.9 0 1.2.4 2.2 1.2 2.9.7.7 1.7 1.1 2.9 1.1zM190 303c.7-.7 1.5-1 2.6-1 1 0 1.9.3 2.6 1s1.1 1.5 1.1 2.6c0 1-.4 1.9-1.1 2.6s-1.6 1-2.6 1-1.9-.3-2.6-1-1.1-1.6-1.1-2.6c.1-1 .4-1.9 1.1-2.6zm1.7 3h.5c.3 0 .7.3.9.9l.6 1.3h.9l-.7-1.4c-.3-.6-.6-.9-.9-1 .4-.1.7-.2 1-.5.2-.2.3-.6.3-.9 0-.4-.1-.7-.4-1s-.8-.4-1.5-.4h-1.5v5.2h.7zm0-2.4h.7c.5 0 .8.1 1 .2s.2.3.2.7c0 .6-.4.9-1.1.9h-.8zM72 305.5c0-1.8-.1-3.2-.1-4 .2.9.4 1.6.6 2.1l7 15.5h1.2l7-15.7c.2-.4.4-1.1.6-2h.1c-.1 1.6-.2 2.9-.2 4v13.7h2.4v-20.4h-3L81.1 313c-.2.6-.6 1.4-1 2.5H80c-.1-.6-.5-1.4-.9-2.4l-6.3-14.3h-3.2v20.4h2.3zm23.7.1h2.1v12.7h-2.1zm1-4.7c.4 0 .8-.1 1.1-.4s.5-.6.5-1.1c0-.4-.1-.8-.5-1.1-.3-.3-.7-.4-1.1-.4s-.8.1-1.1.4-.5.7-.5 1.1c0 .5.1.8.5 1.1.3.3.7.4 1.1.4zm15.7 17.6v-2.2c-1.1.8-2.3 1.3-3.6 1.3-1.5 0-2.7-.5-3.6-1.5s-1.4-2.3-1.4-4c0-1.8.5-3.2 1.4-4.2s2.2-1.5 3.6-1.5c1.2 0 2.4.4 3.5 1.1V305c-1-.5-2.1-.7-3.4-.7-2.3 0-4.2.7-5.5 2.2-1.3 1.4-2 3.4-2 5.8 0 2.1.6 3.9 1.9 5.2 1.3 1.4 3 2.1 5 2.1 1.7-.1 3-.4 4.1-1.1zm5.9-6.7c0-1.7.4-3 1.1-4 .7-.8 1.4-1.3 2.4-1.3.8 0 1.4.1 1.8.5v-2.4c-.3-.1-.8-.2-1.4-.2-.8 0-1.6.3-2.2.8-.7.6-1.3 1.4-1.6 2.5h-.1v-3H116v14.6h2.3zm13.4 7.7c2.2 0 4-.7 5.3-2.1s2-3.3 2-5.6c0-2.4-.6-4.2-1.8-5.6s-2.9-2-5.1-2-4 .7-5.3 1.9c-1.4 1.4-2.1 3.4-2.1 5.9 0 2.2.6 4 1.9 5.4 1.2 1.4 2.9 2.1 5.1 2.1zm-3.3-11.8c.9-.9 2.1-1.4 3.5-1.4 1.5 0 2.6.5 3.5 1.4.8 1 1.3 2.4 1.3 4.2s-.4 3.2-1.2 4.1c-.8 1-2 1.5-3.5 1.5s-2.7-.5-3.6-1.5-1.3-2.3-1.3-4.1c-.1-1.8.3-3.2 1.3-4.2zm20.7 10.6c.9-.8 1.4-1.8 1.4-3 0-1.1-.4-2-1.1-2.7-.6-.6-1.4-1.1-2.7-1.6-1.1-.5-1.8-.9-2.2-1.2-.4-.4-.6-.8-.6-1.5 0-.6.2-1.1.7-1.4.5-.4 1.1-.6 1.9-.6 1.3 0 2.3.3 3.3 1V305c-.9-.5-2-.7-3.1-.7-1.5 0-2.8.4-3.7 1.2-1 .8-1.4 1.8-1.4 3 0 1.1.3 2 .9 2.6.5.6 1.4 1.1 2.6 1.6s2 1 2.4 1.4.6.8.6 1.4c0 1.4-.9 2.1-2.8 2.1-1.4 0-2.7-.5-3.8-1.4v2.5c1 .6 2.2.9 3.6.9 1.7-.1 3.1-.5 4-1.3zm11.1-14c-2.2 0-4 .7-5.3 1.9-1.4 1.4-2.1 3.4-2.1 5.9 0 2.2.6 4 1.9 5.4s3 2.1 5.2 2.1 4-.7 5.3-2.1 2-3.3 2-5.6c0-2.4-.6-4.2-1.8-5.6-1.3-1.4-3-2-5.2-2zm4.6 7.6c0 1.8-.4 3.2-1.2 4.1-.8 1-2 1.5-3.5 1.5s-2.7-.5-3.6-1.5-1.3-2.3-1.3-4.1c0-1.9.5-3.3 1.4-4.3.9-.9 2.1-1.4 3.5-1.4s2.6.5 3.4 1.4c.9 1 1.3 2.4 1.3 4.3zm6.3 7.3h2.3v-12.6h3.4v-2h-3.4v-2.2c0-2 .8-3.1 2.4-3.1.6 0 1.1.1 1.5.4v-2.1c-.4-.2-1-.2-1.7-.2-1.3 0-2.3.4-3.1 1.2-1 .9-1.5 2.1-1.5 3.8v2.4h-2.5v2h2.5zm9.6-4c0 2.8 1.3 4.3 3.8 4.3.9 0 1.6-.1 2.2-.5v-2c-.4.3-.9.5-1.5.5-.8 0-1.3-.2-1.7-.6-.3-.4-.5-1.1-.5-2.1v-8.2h3.7v-2H183v-4.3c-.8.3-1.6.5-2.3.7v3.5h-2.5v2h2.5zm250.5 26.9c-.8-.7-1.7-1.1-2.9-1.1s-2.2.4-2.9 1.2c-.8.8-1.2 1.8-1.2 2.9 0 1.2.4 2.1 1.2 2.9.8.7 1.8 1.1 2.9 1.1 1.2 0 2.1-.4 2.9-1.2s1.2-1.7 1.2-2.9c.1-1.2-.4-2.2-1.2-2.9zm-.3 5.5c-.7.7-1.5 1-2.6 1-1 0-1.9-.3-2.6-1s-1.1-1.6-1.1-2.6.3-1.9 1-2.6 1.5-1 2.6-1c1 0 1.9.3 2.6 1s1.1 1.6 1.1 2.6-.3 1.9-1 2.6zm-2.1-2.4c.4-.1.7-.3 1-.5.2-.2.3-.6.3-.9 0-.4-.1-.7-.4-1s-.8-.4-1.5-.4h-1.5v5.2h.7v-2.2h.5c.3 0 .6.3.9.9l.6 1.3h.9l-.7-1.4c-.3-.6-.6-.9-.8-1zm-.5-.5h-.8V343h.7c.5 0 .8.1 1 .2s.2.3.2.7c-.1.6-.4.8-1.1.8zM298 304h.7v-5.2h1.7v-.7h-4.1v.7h1.7zm3.9-3.9v-1.2c0 .3.1.5.2.6l2 4.5h.3l2-4.5c.1-.1.1-.3.2-.6v5.1h.7v-5.9h-.8l-1.8 4.1c0 .1-.2.4-.3.8h-.1c0-.2-.1-.4-.3-.7l-1.8-4.1h-.9v5.9h.7z" fill="#231f1f"/></symbol><symbol viewBox="0 0 512 314" preserveAspectRatio="xMidYMid" id="nodejs" xmlns="http://www.w3.org/2000/svg"><defs><linearGradient x1="68.188%" y1="17.487%" x2="27.823%" y2="89.755%" id="mb"><stop stop-color="#41873F" offset="0%"/><stop stop-color="#418B3D" offset="32.88%"/><stop stop-color="#419637" offset="63.52%"/><stop stop-color="#3FA92D" offset="93.19%"/><stop stop-color="#3FAE2A" offset="100%"/></linearGradient><linearGradient x1="43.277%" y1="55.169%" x2="159.245%" y2="-18.306%" id="md"><stop stop-color="#41873F" offset="13.76%"/><stop stop-color="#54A044" offset="40.32%"/><stop stop-color="#66B848" offset="71.36%"/><stop stop-color="#6CC04A" offset="90.81%"/></linearGradient><linearGradient x1="-4413.77%" y1="13.43%" x2="5327.93%" y2="13.43%" id="me"><stop stop-color="#6CC04A" offset="9.192%"/><stop stop-color="#66B848" offset="28.64%"/><stop stop-color="#54A044" offset="59.68%"/><stop stop-color="#41873F" offset="86.24%"/></linearGradient><linearGradient x1="-4.389%" y1="49.997%" x2="101.499%" y2="49.997%" id="mf"><stop stop-color="#6CC04A" offset="9.192%"/><stop stop-color="#66B848" offset="28.64%"/><stop stop-color="#54A044" offset="59.68%"/><stop stop-color="#41873F" offset="86.24%"/></linearGradient><linearGradient x1="-9713.77%" y1="36.21%" x2="27.93%" y2="36.21%" id="mg"><stop stop-color="#6CC04A" offset="9.192%"/><stop stop-color="#66B848" offset="28.64%"/><stop stop-color="#54A044" offset="59.68%"/><stop stop-color="#41873F" offset="86.24%"/></linearGradient><linearGradient x1="-103.861%" y1="50.275%" x2="100.797%" y2="50.275%" id="mh"><stop stop-color="#6CC04A" offset="9.192%"/><stop stop-color="#66B848" offset="28.64%"/><stop stop-color="#54A044" offset="59.68%"/><stop stop-color="#41873F" offset="86.24%"/></linearGradient><linearGradient x1="130.613%" y1="-211.069%" x2="4.393%" y2="201.605%" id="mi"><stop stop-color="#41873F" offset="0%"/><stop stop-color="#418B3D" offset="32.88%"/><stop stop-color="#419637" offset="63.52%"/><stop stop-color="#3FA92D" offset="93.19%"/><stop stop-color="#3FAE2A" offset="100%"/></linearGradient><path id="ma" d="M57.903 1.85a5.957 5.957 0 0 0-5.894 0L3.352 29.933c-1.85 1.04-2.89 3.005-2.89 5.085v56.286c0 2.08 1.156 4.045 2.89 5.085l48.657 28.085a5.957 5.957 0 0 0 5.894 0l48.658-28.085c1.849-1.04 2.89-3.005 2.89-5.085V35.019c0-2.08-1.157-4.045-2.89-5.085L57.903 1.85z"/></defs><g fill="none"><path d="M253.11 313.094c-1.733 0-3.351-.462-4.854-1.271l-15.371-9.13c-2.312-1.272-1.156-1.734-.462-1.965 3.12-1.04 3.698-1.272 6.934-3.12.347-.232.81-.116 1.156.115l11.789 7.05c.462.231 1.04.231 1.386 0l46.115-26.698c.462-.231.694-.694.694-1.271v-53.28c0-.579-.232-1.04-.694-1.272l-46.115-26.582c-.462-.232-1.04-.232-1.386 0l-46.115 26.582c-.462.231-.694.809-.694 1.271v53.28c0 .463.232 1.04.694 1.272l12.598 7.281c6.819 3.467 11.095-.578 11.095-4.623v-52.587c0-.693.578-1.387 1.387-1.387h5.894c.694 0 1.387.578 1.387 1.387v52.587c0 9.13-4.97 14.447-13.638 14.447-2.658 0-4.738 0-10.633-2.89l-12.135-6.934c-3.005-1.733-4.854-4.97-4.854-8.437v-53.28c0-3.467 1.849-6.704 4.854-8.437l46.114-26.698c2.89-1.618 6.82-1.618 9.709 0l46.114 26.698c3.005 1.733 4.855 4.97 4.855 8.437v53.28c0 3.467-1.85 6.704-4.855 8.437l-46.114 26.698c-1.503.694-3.236 1.04-4.854 1.04zm14.216-36.637c-20.225 0-24.386-9.246-24.386-17.105 0-.694.578-1.387 1.387-1.387h6.01c.693 0 1.271.462 1.271 1.156.925 6.125 3.583 9.13 15.834 9.13 9.708 0 13.87-2.196 13.87-7.397 0-3.005-1.157-5.2-16.297-6.703-12.598-1.272-20.457-4.045-20.457-14.1 0-9.362 7.86-14.91 21.035-14.91 14.793 0 22.075 5.086 23 16.18 0 .348-.116.694-.347 1.041-.232.231-.578.462-.925.462h-6.01c-.578 0-1.156-.462-1.271-1.04-1.387-6.356-4.97-8.437-14.447-8.437-10.633 0-11.905 3.699-11.905 6.472 0 3.352 1.503 4.392 15.834 6.241 14.216 1.85 20.92 4.508 20.92 14.447-.116 10.171-8.437 15.95-23.116 15.95z" fill="#539E43"/><path d="M110.028 104.712c0-2.08-1.156-4.046-3.005-5.086l-49.004-28.2c-.81-.463-1.734-.694-2.658-.81h-.463c-.924 0-1.849.347-2.658.81l-49.004 28.2c-1.85 1.04-3.005 3.005-3.005 5.086l.116 75.817c0 1.04.578 2.08 1.502 2.543.925.578 2.08.578 2.89 0l29.125-16.643c1.849-1.04 3.005-3.005 3.005-5.085v-35.482c0-2.08 1.155-4.045 3.005-5.085l12.366-7.166c.925-.578 1.965-.81 3.005-.81 1.04 0 2.08.232 2.89.81l12.366 7.166c1.85 1.04 3.005 3.004 3.005 5.085v35.482c0 2.08 1.156 4.045 3.005 5.085l29.125 16.643a2.82 2.82 0 0 0 3.005 0c.925-.463 1.503-1.503 1.503-2.543l-.116-75.817zM345.571.347c-.924-.463-2.08-.463-2.89 0-.924.578-1.502 1.502-1.502 2.542v75.125c0 .693-.346 1.386-1.04 1.849-.693.346-1.387.346-2.08 0l-12.251-7.05a5.957 5.957 0 0 0-5.895 0l-49.004 28.316c-1.849 1.04-3.005 3.005-3.005 5.085v56.516c0 2.08 1.156 4.046 3.005 5.086l49.004 28.316a5.957 5.957 0 0 0 5.895 0l49.004-28.316c1.849-1.04 3.005-3.005 3.005-5.086V21.844c0-2.196-1.156-4.16-3.005-5.201L345.572.347zm-4.507 143.776c0 .578-.231 1.04-.694 1.271l-16.758 9.708a1.714 1.714 0 0 1-1.503 0l-16.758-9.708c-.463-.231-.694-.809-.694-1.271v-19.417c0-.578.231-1.04.694-1.271l16.758-9.709a1.714 1.714 0 0 1 1.503 0l16.758 9.709c.463.23.694.809.694 1.271v19.417zm167.584-19.879c1.85-1.04 2.89-3.005 2.89-5.086v-13.753c0-2.08-1.156-4.045-2.89-5.085l-48.657-28.2a5.957 5.957 0 0 0-5.894 0l-49.004 28.315c-1.85 1.04-3.005 3.005-3.005 5.086v56.516c0 2.08 1.155 4.045 3.005 5.085l48.657 27.738c1.85 1.04 4.045 1.04 5.779 0L489 178.45c.925-.463 1.503-1.503 1.503-2.543 0-1.04-.578-2.08-1.503-2.543l-49.235-28.316c-.924-.577-1.502-1.502-1.502-2.542v-17.683c0-1.04.578-2.08 1.502-2.543l15.372-8.784a2.821 2.821 0 0 1 3.005 0l15.371 8.784c.925.578 1.503 1.502 1.503 2.543v13.869c0 1.04.578 2.08 1.502 2.542a2.82 2.82 0 0 0 3.005 0l29.125-16.99z" fill="#333"/><path d="M456.293 121.586a1.05 1.05 0 0 1 1.155 0l9.362 5.432c.347.23.578.577.578 1.04v10.864c0 .462-.231.809-.578 1.04l-9.362 5.432a1.05 1.05 0 0 1-1.155 0l-9.362-5.432c-.347-.231-.578-.578-.578-1.04v-10.864c0-.463.231-.81.578-1.04l9.362-5.432z" fill="#539E43"/><g transform="translate(134.068 70.501)"><mask id="mc" fill="#fff"><use xlink:href="#ma"/></mask><use fill="url(#mb)" xlink:href="#ma"/><g mask="url(#mc)"><path d="M51.893 1.85 3.121 29.933C1.27 30.974 0 32.94 0 35.02v56.286c0 1.387.578 2.658 1.502 3.698L56.285 1.156c-1.387-.231-3.005-.116-4.392.693zm4.739 123.203c.462-.116.925-.347 1.387-.578l48.773-28.085c1.85-1.04 3.005-3.005 3.005-5.085V35.019c0-1.502-.694-3.005-1.734-4.045l-51.43 94.079z"/><path d="M106.676 29.934 57.788 1.85a8.025 8.025 0 0 0-1.503-.578L1.502 95.12a6.082 6.082 0 0 0 1.619 1.387l48.888 28.085c1.387.809 3.005 1.04 4.507.577l51.432-94.078c-.347-.462-.81-.81-1.272-1.156z" fill="url(#md)"/></g><g mask="url(#mc)"><path d="M109.797 91.305V35.019c0-2.08-1.271-4.045-3.12-5.085L57.786 1.85a5.106 5.106 0 0 0-1.848-.693l53.511 91.42c.231-.347.347-.809.347-1.271zM3.12 29.934C1.272 30.974 0 32.94 0 35.02v56.286c0 2.08 1.387 4.045 3.12 5.085l48.889 28.085c1.156.693 2.427.925 3.814.693L3.467 29.818l-.346.116z"/><path fill="url(#me)" fill-rule="evenodd" d="m50.391.809-.693.347h.924l-.231-.347z" transform="translate(0 -9.246)"/><path d="M106.792 105.636c1.387-.809 2.427-2.196 2.89-3.698L56.053 10.402c-1.387-.231-2.89-.116-4.16.693L3.351 39.065l52.355 95.465a8.057 8.057 0 0 0 2.196-.693l48.889-28.2z" fill="url(#mf)" fill-rule="evenodd" transform="translate(0 -9.246)"/><path fill="url(#mg)" fill-rule="evenodd" d="m111.3 104.712-.347-.578v.809l.346-.231z" transform="translate(0 -9.246)"/><path d="m106.792 105.636-48.773 28.085a6.973 6.973 0 0 1-2.196.693l.925 1.734 54.089-31.32v-.694l-1.387-2.312c-.231 1.618-1.271 3.005-2.658 3.814z" fill="url(#mh)" fill-rule="evenodd" transform="translate(0 -9.246)"/><path d="m106.792 105.636-48.773 28.085a6.973 6.973 0 0 1-2.196.693l.925 1.734 54.089-31.32v-.694l-1.387-2.312c-.231 1.618-1.271 3.005-2.658 3.814z" fill="url(#mi)" fill-rule="evenodd" transform="translate(0 -9.246)"/></g></g></g></symbol><symbol viewBox="0 0 120 60" id="postman" xmlns="http://www.w3.org/2000/svg" stroke="#000" stroke-linecap="round" stroke-linejoin="round" fill="#fff" fill-rule="evenodd"><style><![CDATA[.B{fill:#ff6c37}]]></style><g stroke="none" fill-rule="nonzero"><path d="M39.4195 34.1526v-6.93a.31.31 0 0 1 .091-.207.4.4 0 0 1 .259-.091h1.943c.578-.026 1.146.163 1.593.53.42.44.638 1.037.596 1.645v.09a2.19 2.19 0 0 1-.609 1.697 2.361 2.361 0 0 1-1.606.544h-1.4v2.72c.004.093-.046.18-.13.22a.57.57 0 0 1-.609 0c-.08-.043-.13-.128-.13-.22zm.868-3.393h1.4c.37.027.732-.105.997-.363.258-.306.388-.7.363-1.1v-.13a1.53 1.53 0 0 0-.363-1.088c-.265-.258-.628-.4-.997-.363h-1.4zm6.63 1.515v-3.108a2.19 2.19 0 0 1 .609-1.697 2.67 2.67 0 0 1 3.225 0 2.144 2.144 0 0 1 .61 1.697v3.108a2.15 2.15 0 0 1-.609 1.71 2.67 2.67 0 0 1-3.225 0c-.4397-.4558-.6616-1.0789-.609-1.71zm.868 0c0 .97.453 1.464 1.295 1.464.373.03.742-.1 1-.363a1.49 1.49 0 0 0 .35-1.101v-3.108a1.45 1.45 0 0 0-.35-1.088c-.268-.26-.637-.394-1-.363-.907 0-1.295.48-1.295 1.45zm6.684 1.126a.49.49 0 0 1 .117-.324.323.323 0 0 1 .246-.155.448.448 0 0 1 .246.13l.298.285c.136.133.3.235.48.298.245.0882.5037.1322.764.13a1.62 1.62 0 0 0 1.049-.337 1.167 1.167 0 0 0 .376-.945c.02-.342-.108-.677-.35-.92a2.24 2.24 0 0 0-.842-.544l-1.088-.39c-.33-.143-.62-.365-.842-.648a1.693 1.693 0 0 1-.35-1.127c-.01-.327.062-.652.207-.945.12-.247.31-.454.544-.596a2.451 2.451 0 0 1 .712-.298 3.331 3.331 0 0 1 .803-.104c.414 0 .825.065 1.217.194s.583.298.583.492c-.0009.1121-.0373.2209-.104.311-.05.104-.156.17-.272.168-.1561-.0468-.3076-.1074-.453-.181-.303-.128-.63-.194-.958-.194-.3535-.0191-.7049.0665-1.01.246a.92.92 0 0 0-.389.816c-.01.297.113.582.337.777a2.738 2.738 0 0 0 .855.466l1 .39a2.1 2.1 0 0 1 1.179 1.995c.042.6-.18 1.186-.61 1.606a2.45 2.45 0 0 1-1.645.544 2.9 2.9 0 0 1-1.541-.389c-.39-.26-.57-.518-.57-.75zm6.994-6.087a.4.4 0 0 1 .091-.272.26.26 0 0 1 .22-.117h4.196c.092-.003.18.04.233.117s.0799.1756.078.272-.026.19-.078.272a.281.281 0 0 1-.233.13h-1.645v6.476c.001.092-.05.177-.13.22a.57.57 0 0 1-.609 0c-.08-.043-.13-.128-.13-.22v-6.476h-1.684a.26.26 0 0 1-.22-.117c-.0646-.0813-.1011-.1813-.104-.285zm7.745 6.838v-6.787c-.02-.1.004-.203.062-.286s.148-.14.25-.154h.13c.26 0 .518.18.686.544l1.62 3.108 1.632-3.108c.194-.363.427-.544.686-.544.204-.03.394.108.427.31.013.033.013.07 0 .104v6.787c.01.094-.036.184-.117.233-.2.104-.42.104-.61 0a.233.233 0 0 1-.13-.233v-5.388l-1.545 2.953a.375.375 0 0 1-.35.246c-.146-.006-.272-.105-.31-.246l-1.62-3.005v5.466a.22.22 0 0 1-.117.22.624.624 0 0 1-.298.104c-.106.002-.21-.03-.298-.09a.22.22 0 0 1-.091-.233zm8.457-.052a.171.171 0 0 1 0-.078l2.098-6.787c.065-.207.233-.31.518-.31s.466.104.518.31l2.137 6.812c-.01.11-.074.205-.168.26-.114.066-.244.102-.376.104-.137.02-.268-.063-.31-.194l-.44-1.45h-2.72l-.453 1.515c-.038.135-.173.22-.31.194a.678.678 0 0 1-.35-.104c-.104-.05-.17-.156-.168-.272zm1.49-2.072h2.305l-1.166-3.885zm6.8 2.124v-6.93c0-.194.13-.298.427-.298.133-.002.262.044.363.13a1.299 1.299 0 0 1 .298.414l2.6 5.025v-5.27c-.001-.092.05-.177.13-.22.2-.104.42-.104.61 0 .08.043.13.128.13.22v6.93c.001.092-.05.177-.13.22-.087.06-.192.093-.298.09-.248-.013-.466-.17-.557-.4l-2.68-5.18v5.27a.22.22 0 0 1-.117.22.57.57 0 0 1-.609 0c-.1-.025-.165-.12-.155-.22z"/><path d="M31.9194 20.0006c-3.8419-4.976-10.304-7.146-16.3699-5.5s-10.5461 6.787-11.3461 13.022 2.2341 12.34 7.69 15.464 12.255 2.656 17.23-1.188c6.8001-5.248 8.03-15.006 2.798-21.797z" class="B"/><path d="M24.8615 23.8606l-6.553 6.605-1.852-1.904c6.45-6.45 7.097-5.867 8.418-4.7z"/><path d="M18.3074 30.6475c-.058-.001-.1129-.025-.155-.065l-1.865-1.865c-.0869-.1-.0869-.233 0-.324 6.3461-6.346 7.2271-6.06 8.7301-4.7.0499.04.0799.103.078.168a.18.18 0 0 1-.065.168l-6.5531 6.553a.249.249 0 0 1-.168.065zm-1.528-2.072l1.528 1.528 6.217-6.217a1.4 1.4 0 0 0-1.8389-.311c-1.1271.518-2.94 2.046-5.9061 5z" class="B"/><path d="M20.1855 32.2926l-1.786-1.812 6.553-6.476c1.76 1.723-.855 4.598-4.766 8.29z"/><path d="M20.1855 32.5256c-.057-.005-.112-.027-.155-.065l-1.813-1.787c-.0271-.066-.0271-.14 0-.207-.02-.054-.02-.114 0-.168l6.5529-6.553a.244.244 0 0 1 .3371 0c.4299.395.6659.958.648 1.54 0 1.748-1.9951 3.95-5.388 7.162-.045.045-.105.072-.168.078zm-1.4501-2.072l1.4641 1.464c2.5999-2.46 5.05-4.973 5.077-6.683.014-.363-.1061-.718-.337-.997z" class="B"/><path d="M16.5075 28.6006l1.295 1.295c.017.015.026.036.026.058s-.01.044-.026.058l-2.72.583a.26.26 0 0 1-.233-.44l1.593-1.58s.052 0 .078.026z"/><path d="M15.0055 30.8555c-.176-.002-.337-.095-.427-.246a.49.49 0 0 1 .091-.583l1.58-1.593a.31.31 0 0 1 .414 0l1.295 1.295c.077.073.107.183.078.285s-.115.183-.22.207l-2.72.583zm1.45-1.97l-1.464 1.464 2.422-.518zm.13-.13z" class="B"/><path d="M28.3455 20.2225c-.9371-.902-2.4081-.94-3.4001-.086s-1.15 2.315-.3879 3.37 2.2079 1.35 3.3249.68l-1.76-1.76z"/><path d="M26.5965 24.7806c-1.1-.014-2.087-.685-2.504-1.704a2.748 2.748 0 0 1 .588-2.972c1.0779-1.0604 2.8071-1.0604 3.885 0a.22.22 0 0 1 0 .337l-2.098 1.982 1.593 1.554a.22.22 0 0 1 .065.194c-.008.07-.046.13-.104.168a2.811 2.811 0 0 1-1.425.427zm0-5.025a2.28 2.28 0 0 0-1.606 3.885c.66.662 1.656.852 2.513.48l-1.528-1.528c-.05-.04-.078-.1-.078-.162s.03-.123.078-.162l2.02-2.033a2.32 2.32 0 0 0-1.399-.479z" class="B"/><path d="M28.3845 20.2606l-2.202 2.202 1.76 1.76a2.677 2.677 0 0 0 .492-.363c.9601-1.0145.9429-2.6076-.039-3.601z"/><path d="M27.8915 24.4186c-.06.003-.116-.02-.155-.065l-1.76-1.76c-.05-.04-.078-.1-.078-.162s.03-.123.078-.162l2.202-2.163c.043-.065.116-.104.194-.104s.15.04.194.104a2.72 2.72 0 0 1 0 3.885c-.152.162-.327.3-.518.414-.048.024-.104.03-.155.013zm-1.425-1.995l1.464 1.464c.1-.07.196-.148.285-.233.4303-.429.6723-1.0114.673-1.619a2.23 2.23 0 0 0-.557-1.476z" class="B"/><path d="M25.1335 24.1336c-.364-.342-.93-.342-1.295 0l-5.867 5.854.97.984 6.217-5.44a.96.96 0 0 0-.013-1.399z"/><path d="M18.8894 31.2046c-.058-.001-.1129-.025-.155-.065l-.9839-.984c-.0871-.1-.0871-.233 0-.324l5.867-5.828a1.19 1.19 0 0 1 2.0329.881c-.013.327-.1579.635-.3999.855l-6.2171 5.44a.22.22 0 0 1-.155.039zm-.686-1.217l.6481.648 6.0869-5.3a.71.71 0 0 0 .246-.518c.008-.2-.073-.395-.22-.53-.2829-.282-.7399-.282-1.023 0z" class="B"/><path d="M13.4255 36.6576a.13.13 0 0 0 0 .155l.26 1.127a.325.325 0 0 1-.16.335c-.118.067-.267.052-.37-.037l-1.774-1.7 5.53-5.57h1.917l1.295 1.295c-2.02 1.767-4.273 3.248-6.696 4.404z"/><path d="M13.3095 38.5606c-.147-.003-.286-.063-.39-.168l-1.684-1.684c-.05-.04-.078-.1-.078-.162s.03-.123.078-.162l5.57-5.57a.22.22 0 0 1 .117-.065h1.943a.229.229 0 0 1 .155 0l1.295 1.295c.05.046.074.114.065.18a.206.206 0 0 1-.078.168l-.104.09a31.732 31.732 0 0 1-6.644 4.261l.26 1.036c.04.164.002.337-.1.47s-.26.213-.43.216zm-1.58-2.033l1.528 1.554a.079.079 0 0 0 .104 0 .075.075 0 0 0 0-.09l-.26-1.127a.362.362 0 0 1 .194-.414 31.848 31.848 0 0 0 6.476-4.17l-1.072-1.063h-1.736zm1.865.233z" class="B"/><path d="M10.0445 37.8606l1.295-1.295 1.995 1.995-3.173-.22a.26.26 0 0 1-.117-.479z"/><path d="M13.3735 38.7556l-3.16-.2201a.49.49 0 0 1-.311-.8289l1.295-1.2951c.1-.0869.233-.0869.324 0l1.982 1.9821a.22.22 0 0 1 0 .2589c-.03.048-.076.085-.13.104zm-3.16-.7251l2.6.1681-1.425-1.3341z" class="B"/><path d="M19.0075 31.1146l-2.616.39 1.515-1.502z"/><path d="M16.3914 31.7606a.22.22 0 0 1-.207-.13c-.0561-.0772-.0561-.1818 0-.259l1.502-1.515a.244.244 0 0 1 .3371 0l1.0999 1.1c.0446.0713.0446.1617 0 .233a.22.22 0 0 1-.181.168l-2.5999.39zm1.515-1.425l-.8419.842 1.45-.22z" class="B"/><path d="M19.0075 31.1146l-1.813.233c-.1.023-.204-.023-.255-.112a.233.233 0 0 1 .034-.276l.945-.945z"/><path d="M17.1295 31.5936a.48.48 0 0 1-.414-.246c-.102-.182-.07-.4.078-.557l.945-.945a.244.244 0 0 1 .337 0l1.1 1.1c.067.063.1.16.06.247s-.1.147-.202.154l-1.813.233zm0-.48l1.373-.168-.61-.61-.777.777zm11.268-9.364c-.05-.085-.156-.118-.246-.078-.043.022-.076.06-.1.107s-.01.096.013.14c.09.19.066.417-.065.583a.168.168 0 0 0-.053.123c0 .047.02.09.053.123.033.013.07.013.104 0 .06.016.126-.004.168-.052a.893.893 0 0 0 .117-.945zm62.288 5.362l-1.53 3.295c-.14.278-.233.648-.5.648-.372 0-.417-.372-.557-.695l-1.2521-2.737c-.0929-.14-.0929-.417-.2779-.372-.233.047-.185.324-.185.5v5.613c0 .278 0 .557-.047.835s-.233.464-.5.464c-.278-.047-.372-.233-.4171-.464v-8.722c0-.372-.0929-.88.3241-1.02.464-.14.742.233.927.648l1.425 3.155c.14.278.185.777.557.835.417 0 .464-.557.604-.835l1.425-3.062c.185-.417.417-.835.927-.742.5.14.372.648.372 1.067v8.073c0 .417.14 1.067-.464 1.067-.648 0-.5-.648-.5-1.114v-5.336c-.047-.372.047-.742-.324-1.114zm19.903.233c-.278.278-.185.648-.185.974v5.52c0 .324.093.835-.3721.835-.5.047-.5-.464-.5-.835v-8.548c0-.324-.047-.742.3241-.835.417-.14.648.185.835.557l2.273 5.058c.14.372.324.695.464 1.067.093.185.093.464.372.372.233-.093.1849-.372.1849-.557v-5.44c0-.233 0-.417.047-.648.0471-.324.2331-.464.5-.464.2781.047.3721.278.3721.557v8.583c0 .372.14.88-.324 1.02-.5.185-.695-.324-.88-.742l-2.598-5.753c-.14-.278-.185-.604-.5-.742zm-52.657 2.18c-.047 1.02.047 1.995-.093 3.015-.233 1.425-1.02 2.134-2.46 2.134-1.53 0-2.413-.648-2.598-2.088-.233-2.088-.278-4.222 0-6.3.185-1.347 1.114-1.995 2.505-1.995s2.273.695 2.505 1.995c.233 1.114.093 2.18.14 3.247zm-.927 0v-2.364c-.047-1.204-.695-1.904-1.76-1.856-1.02 0-1.624.648-1.684 1.856v4.792c.047 1.204.6479 1.856 1.684 1.904 1.067 0 1.716-.648 1.76-1.904.047-.777 0-1.577 0-2.413zm46.755 4.5c0 .324-.047.557-.324.604-.233.047-.4171 0-.5-.278l-.185-.604c-.4171-1.425-.4171-1.425-1.684-1.425h-.407c-1.577 0-1.577 0-2.134 1.684-.0931.324-.14.777-.604.648-.464-.185-.324-.648-.233-1.02l2.273-8.398c.14-.417.185-1.02.777-.974.5.047.604.557.695.974l2.134 7.978c.093.278.14.557.185.835zm-3.108-2.598h.464c1.02 0 1.0669-.047.742-1.204l-.88-3.294c-.047-.233 0-.557-.278-.557s-.324.324-.372.604l-.742 2.785c-.464 1.684-.417 1.684 1.067 1.684zm-59.05-1.9v-4.3c0-.695.233-.927.777-.927h1.577c2.134.047 2.923 1.02 2.875 3.48-.047 1.684-.88 2.645-2.33 2.737-.4171 0-.777.047-1.204 0-.648-.047-.88.278-.835.974.047.835 0 1.684 0 2.46 0 .324-.047.695-.464.695s-.417-.372-.417-.742v-4.363zm2.18.14c1.347 0 1.856-.324 2.088-1.3s.233-1.904-.464-2.645c-.742-.742-1.716-.417-2.5981-.372-.3239 0-.3239.417-.3239.742v2.088c0 1.484 0 1.484 1.3 1.484zm22.406 5.103c-.974 0-1.76-.185-2.366-.927-.185-.233-.417-.557-.14-.88.233-.278.5-.093.695.14.557.604 1.16.777 1.904.742.695-.047 1.2039-.372 1.484-1.16a1.995 1.995 0 0 0-.417-2.088c-.5-.557-1.16-.777-1.81-1.114-.927-.417-1.624-1.02-1.716-2.273-.14-1.684.604-2.598 2.228-2.923.695-.14 1.347.047 1.948.278.324.093.604.372.464.777-.14.464-.464.278-.742.14-.604-.324-1.252-.324-1.856-.233-.5.093-.974.417-1.067 1.067s0 1.204.464 1.624c.604.5 1.3.695 1.9479 1.02 1.0201.5 1.5771 1.392 1.5771 2.69 0 1.204-.278 2.134-1.3 2.737-.464.324-.974.278-1.3.372zm10.162-4.872v-3.572c.047-.88-.278-1.16-.974-1.067-.278.047-.604 0-.88 0s-.4641-.14-.4641-.5c0-.278.1851-.464.4171-.464h4.732c.233 0 .417.14.417.417 0 .324-.185.5-.464.5-.324 0-.695.047-1.02 0-.648-.047-.835.278-.835.974v7.61c0 .372-.047.777-.464.777-.464 0-.464-.417-.464-.777v-3.885z" class="B"/></g></symbol>
    
    
    
    
    <symbol preserveAspectRatio="xMidYMid" viewBox="0 0 256 256" id="postman-notext" xmlns="http://www.w3.org/2000/svg"><path d="M254.953 144.253c8.959-70.131-40.569-134.248-110.572-143.206C74.378-7.912 10.005 41.616 1.047 111.619c-8.959 70.003 40.569 134.248 110.572 143.334 70.131 8.959 134.248-40.569 143.334-110.7Z" fill="#FF6C37"/><path d="m174.2 82.184-54.007 54.007-15.229-15.23c53.11-53.11 58.358-48.503 69.236-38.777Z" fill="#FFF"/><path d="M120.193 137.47c-.384 0-.64-.128-.895-.384l-15.358-15.229a1.237 1.237 0 0 1 0-1.792c54.007-54.006 59.638-48.887 71.028-38.649.255.256.383.512.383.896s-.128.64-.383.896l-54.007 53.878c-.128.256-.512.384-.768.384Zm-13.437-16.509 13.437 13.438 52.087-52.087c-9.47-8.446-15.87-11.006-65.524 38.65Z" fill="#FF6C37"/><path d="m135.679 151.676-14.718-14.718 54.007-54.006c14.46 14.59-7.167 38.265-39.29 68.724Z" fill="#FFF"/><path d="M135.679 152.956c-.384 0-.64-.128-.896-.384l-14.718-14.718c-.256-.256-.256-.512-.256-.896s.128-.64.384-.895L174.2 82.056a1.237 1.237 0 0 1 1.791 0 15.58 15.58 0 0 1 4.991 11.902c-.256 14.206-16.38 32.25-44.28 58.614-.383.256-.767.384-1.023.384Zm-12.926-15.998c8.19 8.319 11.646 11.646 12.926 12.926 21.5-20.476 42.36-41.464 42.488-55.926.128-3.327-1.152-6.655-3.327-9.214l-52.087 52.214Z" fill="#FF6C37"/><path d="m105.22 121.345 10.878 10.878c.256.256.256.512 0 .768-.128.128-.128.128-.256.128l-22.524 4.863c-1.152.128-2.175-.64-2.431-1.791-.128-.64.128-1.28.512-1.664l13.053-13.054c.256-.256.64-.384.768-.128Z" fill="#FFF"/><path d="M92.934 139.262c-1.92 0-3.327-1.536-3.327-3.455 0-.896.384-1.792 1.024-2.432l13.053-13.054c.768-.64 1.792-.64 2.56 0l10.878 10.878c.768.64.768 1.792 0 2.56-.256.256-.512.384-.896.512l-22.524 4.863c-.256 0-.512.128-.768.128Zm11.902-16.51-12.542 12.543c-.256.256-.383.64-.128 1.024.128.383.512.511.896.383l21.116-4.607-9.342-9.342Z" fill="#FF6C37"/><path d="M202.739 52.238c-8.191-7.935-21.373-7.679-29.307.64-7.935 8.318-7.679 21.372.64 29.306A20.678 20.678 0 0 0 199.155 85l-14.59-14.59 18.174-18.172Z" fill="#FFF"/><path d="M188.405 89.223c-12.158 0-22.012-9.854-22.012-22.012 0-12.158 9.854-22.012 22.012-22.012 5.631 0 11.134 2.176 15.23 6.143.255.256.383.512.383.896s-.128.64-.384.895L186.357 70.41l13.566 13.566c.512.512.512 1.28 0 1.792l-.256.256c-3.327 2.047-7.295 3.199-11.262 3.199Zm0-41.337c-10.75 0-19.452 8.703-19.324 19.453 0 10.75 8.702 19.452 19.452 19.324 2.944 0 5.887-.64 8.575-2.047l-13.438-13.31c-.256-.256-.384-.512-.384-.896s.128-.64.384-.895l17.149-17.15c-3.456-2.943-7.807-4.479-12.414-4.479Z" fill="#FF6C37"/><path d="m203.122 52.622-.255-.256-18.301 18.044 14.461 14.462c1.408-.896 2.816-1.92 3.967-3.072a20.51 20.51 0 0 0 .128-29.178Z" fill="#FFF"/><path d="M199.155 86.28c-.384 0-.64-.128-.896-.384l-14.589-14.59c-.256-.256-.384-.512-.384-.896s.128-.64.384-.895l18.173-18.173a1.237 1.237 0 0 1 1.791 0l.384.256c8.575 8.574 8.575 22.396.128 31.098-1.28 1.28-2.687 2.432-4.223 3.328-.384.128-.64.256-.768.256Zm-12.798-15.87 12.926 12.926c1.024-.64 2.048-1.536 2.816-2.304 7.294-7.294 7.678-19.196.64-26.875L186.357 70.41Z" fill="#FF6C37"/><path d="M176.375 84.488a7.879 7.879 0 0 0-11.134 0l-48.247 48.247 8.063 8.063 51.062-44.792c3.328-2.816 3.584-7.807.768-11.134-.256-.128-.384-.256-.512-.384Z" fill="#FFF"/><path d="M124.929 142.077c-.384 0-.64-.128-.896-.383l-8.063-8.063a1.237 1.237 0 0 1 0-1.792l48.247-48.247a9.115 9.115 0 0 1 12.926 0 9.115 9.115 0 0 1 0 12.926l-.384.384-51.063 44.792c-.128.255-.384.383-.767.383Zm-6.143-9.342 6.27 6.271 50.167-44.024c2.816-2.304 3.072-6.527.768-9.342-2.303-2.816-6.526-3.072-9.342-.768-.128.128-.256.256-.512.384l-47.351 47.48Z" fill="#FF6C37"/><path d="M80.009 187.637c-.512.256-.768.768-.64 1.28l2.175 9.214c.512 1.28-.256 2.816-1.663 3.2-1.024.384-2.176 0-2.816-.768l-14.077-13.95 45.943-45.943 15.87.256 10.75 10.75c-2.56 2.175-18.045 17.149-55.542 35.961Z" fill="#FFF"/><path d="M78.985 202.61c-1.024 0-2.048-.383-2.688-1.151l-13.95-13.95c-.255-.256-.383-.512-.383-.896 0-.383.128-.64.384-.895l45.944-45.944c.256-.256.64-.384.895-.384l15.87.256c.383 0 .64.128.895.384l10.75 10.75c.256.256.384.64.384 1.024s-.128.64-.512.896l-.895.767c-13.566 11.902-31.995 23.804-54.902 35.194l2.175 9.086c.384 1.664-.384 3.456-1.92 4.352-.767.384-1.407.512-2.047.512Zm-14.078-15.997 13.182 13.054c.384.64 1.152.896 1.792.512.64-.384.896-1.152.512-1.792l-2.176-9.214c-.256-1.152.256-2.176 1.28-2.688 22.652-11.39 40.952-23.163 54.39-34.81l-9.47-9.47-14.718-.256-44.792 44.664Z" fill="#FF6C37"/><path d="m52.11 197.62 11.006-11.007 16.38 16.381-26.107-1.791c-1.151-.128-1.92-1.152-1.791-2.304 0-.512.128-1.024.512-1.28Z" fill="#FFF"/><path d="m79.497 204.146-26.236-1.791c-1.92-.128-3.199-1.792-3.071-3.712.128-.768.384-1.535 1.024-2.047L62.22 185.59a1.237 1.237 0 0 1 1.792 0l16.38 16.38c.385.385.512.897.257 1.408-.256.512-.64.768-1.152.768Zm-16.381-15.74-10.11 10.11c-.384.255-.384.895 0 1.151.127.128.255.256.511.256l22.652 1.536-13.053-13.054ZM104.452 146.557c-.768 0-1.28-.64-1.28-1.28 0-.384.128-.64.384-.896l12.414-12.414a1.237 1.237 0 0 1 1.792 0l8.062 8.063c.384.384.512.768.384 1.28-.128.384-.512.767-1.023.895l-20.477 4.352h-.256Zm12.414-11.902-8.446 8.446 13.821-2.943-5.375-5.503Z" fill="#FF6C37"/><path d="m124.8 140.926-14.077 3.071c-1.024.256-2.048-.384-2.303-1.408-.128-.64 0-1.28.511-1.791l7.807-7.807 8.063 7.935Z" fill="#FFF"/><path d="M110.467 145.277a3.168 3.168 0 0 1-3.2-3.2c0-.895.385-1.663.897-2.303l7.806-7.807a1.237 1.237 0 0 1 1.792 0l8.062 8.063c.384.384.512.768.384 1.28-.128.384-.512.767-1.023.895l-14.078 3.072h-.64Zm6.399-10.622-6.91 6.91c-.257.257-.257.512-.129.768s.384.384.768.384l11.774-2.56-5.503-5.502ZM203.25 64.907c-.256-.767-1.151-1.151-1.92-.895-.767.255-1.151 1.151-.895 1.92 0 .127.128.255.128.383.768 1.536.512 3.455-.512 4.863-.512.64-.384 1.536.128 2.048.64.512 1.536.384 2.048-.256 1.92-2.432 2.303-5.503 1.023-8.063Z" fill="#FF6C37"/></symbol><symbol viewBox="-11.5 -10.232 23 20.463" id="react" xmlns="http://www.w3.org/2000/svg"><circle r="2.05" fill="#61dafb"/><g stroke="#61dafb" fill="none"><ellipse rx="11" ry="4.2"/><ellipse rx="11" ry="4.2" transform="rotate(60)"/><ellipse rx="11" ry="4.2" transform="rotate(120)"/></g></symbol><symbol viewBox="0 0 547.8 410.6" xml:space="preserve" id="sass" xmlns="http://www.w3.org/2000/svg"><path fill="#CD6799" d="M471.4 236c-19.1.1-35.7 4.7-49.6 11.5-5.1-10.1-10.2-19.1-11.1-25.7-1-7.7-2.2-12.4-1-21.6 1.2-9.2 6.6-22.3 6.5-23.3s-1.2-5.7-12.2-5.8c-11-.1-20.5 2.1-21.6 5-1.1 2.9-3.2 9.5-4.6 16.3-1.9 10-22 45.7-33.5 64.4-3.7-7.3-6.9-13.7-7.6-18.8-1-7.7-2.2-12.4-1-21.6 1.2-9.2 6.6-22.3 6.5-23.3-.1-1-1.2-5.7-12.2-5.8-11-.1-20.5 2.1-21.6 5-1.1 2.9-2.3 9.7-4.6 16.3-2.3 6.6-29 66.2-36 81.6-3.6 7.9-6.7 14.2-8.9 18.5s-.1.3-.4.8c-1.9 3.7-3 5.7-3 5.7v.1c-1.5 2.7-3.1 5.2-3.9 5.2-.6 0-1.7-7.2.2-17 4-20.7 13.5-52.9 13.4-54 0-.6 1.8-6.2-6.2-9.1-7.8-2.9-10.6 1.9-11.3 1.9-.7 0-1.2 1.7-1.2 1.7s8.7-36.2-16.6-36.2c-15.8 0-37.6 17.3-48.4 32.9-6.8 3.7-21.3 11.6-36.8 20.1-5.9 3.3-12 6.6-17.7 9.7-.4-.4-.8-.9-1.2-1.3-30.6-32.7-87.2-55.8-84.8-99.7.9-16 6.4-58 108.7-109 84.2-41.5 151.2-30 162.8-4.5 16.6 36.4-35.9 104-122.9 113.8-33.2 3.7-50.6-9.1-55-13.9-4.6-5-5.3-5.3-7-4.3-2.8 1.5-1 6 0 8.6 2.6 6.8 13.3 18.8 31.4 24.7 16 5.2 54.9 8.1 102-10.1 52.7-20.4 93.9-77.1 81.8-124.6C330.7 2 250.7-13.9 175 13 130 29 81.2 54.2 46.1 87 4.4 126-2.2 159.9.5 174.1c9.7 50.4 79.2 83.2 107 107.5-1.4.8-2.7 1.5-3.8 2.1-13.9 6.9-66.9 34.6-80.1 63.9-15 33.2 2.4 57 13.9 60.2 35.7 9.9 72.4-7.9 92.1-37.3 19.7-29.4 17.3-67.6 8.2-85.1-.1-.2-.2-.4-.4-.6 3.6-2.1 7.3-4.3 10.9-6.4 7.1-4.2 14.1-8.1 20.1-11.3-3.4 9.3-5.9 20.4-7.1 36.4-1.5 18.8 6.2 43.2 16.3 52.8 4.5 4.2 9.8 4.3 13.2 4.3 11.8 0 17.1-9.8 23-21.4 7.2-14.2 13.7-30.7 13.7-30.7s-8.1 44.6 13.9 44.6c8 0 16.1-10.4 19.7-15.7v.1s.2-.3.6-1c.8-1.3 1.3-2.1 1.3-2.1v-.2c3.2-5.6 10.4-18.3 21.1-39.4 13.8-27.2 27.1-61.2 27.1-61.2s1.2 8.3 5.3 22.1c2.4 8.1 7.4 17 11.4 25.6-3.2 4.5-5.2 7-5.2 7l.1.1c-2.6 3.4-5.4 7.1-8.5 10.7-10.9 13-23.9 27.9-25.7 32.2-2.1 5.1-1.6 8.8 2.4 11.8 2.9 2.2 8.1 2.5 13.4 2.2 9.8-.7 16.7-3.1 20.1-4.6 5.3-1.9 11.5-4.8 17.3-9.1 10.7-7.9 17.2-19.2 16.6-34.1-.3-8.2-3-16.4-6.3-24.1 1-1.4 1.9-2.8 2.9-4.2 16.9-24.7 30-51.8 30-51.8s1.2 8.3 5.3 22.1c2 7 6.1 14.6 9.7 22-15.9 12.9-25.7 27.9-29.2 37.7-6.3 18.2-1.4 26.4 7.9 28.3 4.2.9 10.2-1.1 14.6-3 5.6-1.8 12.2-4.9 18.5-9.5 10.7-7.9 21-18.9 20.4-33.8-.3-6.8-2.1-13.5-4.6-20 13.5-5.6 30.9-8.7 53.1-6.1 47.6 5.6 57 35.3 55.2 47.8-1.8 12.5-11.8 19.3-15.1 21.4-3.3 2.1-4.4 2.8-4.1 4.3.4 2.2 2 2.1 4.8 1.7 3.9-.7 25-10.1 25.9-33.1 1.5-29.4-26.5-61.5-76-61.2zM104.2 359.8C88.4 377 66.4 383.5 56.9 378c-10.2-5.9-6.2-31.3 13.2-49.5 11.8-11.1 27-21.4 37.1-27.7 2.3-1.4 5.7-3.4 9.8-5.9.7-.4 1.1-.6 1.1-.6l2.4-1.5c7.1 26 .3 48.9-16.3 67zm115-78.2c-5.5 13.4-17 47.7-24 45.8-6-1.6-9.7-27.6-1.2-53.3 4.3-12.9 13.4-28.3 18.7-34.3 8.6-9.6 18.1-12.8 20.4-8.9 2.9 5.1-10.5 42.3-13.9 50.7zm94.9 45.4c-2.3 1.2-4.5 2-5.5 1.4-.7-.4 1-2 1-2s11.9-12.8 16.6-18.6c2.7-3.4 5.9-7.4 9.3-11.9v1.3c0 15.3-14.8 25.6-21.4 29.8zm73.2-16.7c-1.7-1.2-1.4-5.2 4.3-17.7 2.2-4.9 7.4-13.1 16.3-21 1 3.2 1.7 6.3 1.6 9.2-.1 19.3-13.9 26.5-22.2 29.5z"/></symbol><symbol viewBox="-120.017 -39.29 1040.147 235.738" id="stackoverflow" xmlns="http://www.w3.org/2000/svg"><defs><clipPath clipPathUnits="userSpaceOnUse" id="sa"><path d="M0 1178.69V0h6000.85v1178.69z"/></clipPath></defs><g clip-path="url(#sa)" transform="matrix(.13333 0 0 -.13333 0 157.159)"><path d="m1656.86 568.617 57.57 57.578h-117.91v139.981h-62.27V324.172c0-63.141 36.33-114.18 108.99-114.18h44.11v53.629h-32.87c-39.79 0-57.96 23.359-57.96 62.281v242.715zm3224.51-225.105v482.734h-110.62V336.699c0-62.972 38.29-126.793 129.34-126.793h62.96v93.61h-42.54c-28.08 0-39.14 13.609-39.14 39.996zM5884.28 653.25l-71.49-274.008-91.05 274.008h-80.83l-90.21-274.008-71.47 274.008h-117.44l136.15-443.344h91.05l92.75 278.258 92.76-278.258h91.05l135.3 443.344zM5225.5 323.938c-12.76-12.766-29.79-19.575-51.91-19.575-22.13 0-38.3 6.809-51.06 19.575C5099.55 346.902 5097 386.055 5097 432c0 45.961 2.55 84.254 25.53 107.219 12.76 12.765 28.93 19.574 51.06 19.574 22.12 0 39.15-6.809 51.91-19.574 22.97-22.965 25.53-61.258 25.53-107.219 0-45.945-2.56-85.098-25.53-108.062zm-51.91 334.417c-65.53 0-109.77-25.523-137-54.457-40-41.699-50.21-91.91-50.21-171.898 0-80.832 10.21-131.043 50.21-172.742 27.23-28.93 71.47-54.457 137-54.457 65.52 0 110.62 25.527 137.85 54.457 40 41.699 50.21 91.91 50.21 172.742 0 79.988-10.21 130.199-50.21 171.898-27.23 28.934-72.33 54.457-137.85 54.457zm-647.76 41.11V210.359h110.63V559.91h81.69v84.238h-81.69v48.508c0 25.528 12.76 39.992 39.13 39.992h42.56v93.598h-62.98c-90.2 0-129.34-63.816-129.34-126.781zm-250.45-88.758v42.543h-108.07V209.906h110.62v267.196c0 56.164 37.45 81.691 71.49 81.691 27.23 0 41.34-9.051 58.37-26.066l83.73 83.933c-30.63 30.637-61.27 41.695-104.67 41.695-47.65 0-90.2-22.121-111.47-47.648zM3834.8 472.852c.84 19.578 3.4 31.48 10.21 47.652 11.91 26.383 36.59 45.945 74.03 45.945s62.12-19.562 74.03-45.945c6.81-16.172 9.36-28.074 10.22-47.652zm84.24 185.503c-114.88 0-193.16-81.687-193.16-226.355 0-179.551 100.4-227.199 205.07-227.199 79.99 0 123.39 24.679 168.49 69.785l-67.22 65.519c-28.09-28.085-51.91-41.695-100.42-41.695-62.12 0-97 41.695-97 98.703h277.41v49.352c0 121.687-69.79 211.89-193.17 211.89zm-304.77-5.105-89.35-274.008-90.2 274.008h-116.58l163.38-443.344h86.8l162.53 443.344zm-430.72-329.312c-12.76-12.766-29.79-19.575-51.91-19.575-22.12 0-38.29 6.809-51.06 19.575-22.98 22.964-25.53 62.117-25.53 108.062 0 45.961 2.55 84.254 25.53 107.219 12.77 12.765 28.94 19.574 51.06 19.574s39.15-6.809 51.91-19.574c22.97-22.965 25.53-61.258 25.53-107.219 0-45.945-2.56-85.098-25.53-108.062zm-51.91 334.417c-65.52 0-109.77-25.523-137-54.457-39.99-41.699-50.21-91.91-50.21-171.898 0-80.832 10.22-131.043 50.21-172.742 27.23-28.93 71.48-54.457 137-54.457s110.62 25.527 137.85 54.457c40 41.699 50.21 91.91 50.21 172.742 0 79.988-10.21 130.199-50.21 171.898-27.23 28.934-72.33 54.457-137.85 54.457zm-292.6-22.16h-77.64l-192.97-187.859.3 377.531h-62.28V209.992h62.28l-.3 155.324 75.55 75.817 142.74-231.141h76.97l-176.57 274.281zm-533.4-50.804c40.65 0 65.74-12.102 97.74-47.563 0 0 41.7 40.524 41.35 40.891-43.66 46.711-80.73 62.035-139.09 62.035-107.26 0-188.57-72.656-188.57-217.981 0-145.304 81.31-217.972 188.57-217.972 58.82 0 96.01 15.578 140.12 63.14l-42.38 40.653c-32-35.461-57.09-48.434-97.74-48.434-41.52 0-76.12 16.434-98.61 48.434-19.9 27.679-27.68 60.554-27.68 114.179 0 53.629 7.78 86.504 27.68 114.184 22.49 32.012 57.09 48.434 98.61 48.434zm-306.2-224.883c0-35.477-6.93-59.696-21.63-73.528-26.82-25.949-58.82-28.55-95.15-28.55-67.47 0-97.74 23.355-97.74 72.668 0 49.293 31.14 75.242 95.15 75.242h119.37zm-108.12 280.246c-68.28 0-111.29-13.469-148.98-61.184-.52-.648 40.85-40.882 40.85-40.882 25.09 35.46 52.77 48.437 107.26 48.437 77.85 0 108.99-31.145 108.99-93.414v-40.652h-128.02c-95.15 0-147.05-48.45-147.05-122.836 0-33.731 11.25-65.731 32-86.5 26.82-27.68 61.42-38.922 120.24-38.922 57.09 0 88.22 11.242 122.83 45.844v-40.653h62.27v288.91c0 92.555-56.22 141.852-170.39 141.852zm-532.58-191.156-68.34 6.05c-53.62 4.321-74.38 25.95-74.38 62.282 0 43.246 32.86 70.062 95.15 70.062 44.11 0 83.04-10.383 113.3-33.726l40.67 40.652c-38.07 31.129-92.56 45.836-153.11 45.836-90.83 0-156.56-46.707-156.56-124.555 0-70.066 44.11-107.258 127.15-114.179l70.07-6.051c49.3-4.336 70.93-25.09 70.93-62.285 0-50.164-43.25-75.254-113.32-75.254-52.76 0-98.61 13.843-132.35 49.304l-41.51-41.523c46.71-44.977 102.93-61.41 174.73-61.41 102.93 0 172.99 47.578 172.99 129.742 0 79.594-51.03 108.129-125.42 115.055" fill="#212325"/><path d="M840.719 105.18v315.511h105.164V0H0v420.691h105.164V105.18h735.555" fill="#bcbbbc"/><path d="M210.445 210.359h525.821v105.164H210.445zm471.266 968.331-84.383-62.76 313.817-421.914 84.382 62.761zM420.879 929.949l404.047-336.504 67.301 80.813L488.18 1010.76zM288.973 696.102l476.664-221.993 44.398 95.332-476.664 221.993zm-68.086-246.391 514.582-108.149 21.629 102.918-514.582 108.149-21.629-102.918" fill="#f48023"/></g></symbol><symbol viewBox="0 0 120 120" id="stackoverflow-notext" xmlns="http://www.w3.org/2000/svg"><path d="M84.4 93.8V70.6h7.7v30.9H22.6V70.6h7.7v23.2z" style="fill:#bcbbbb"/><path d="m38.8 68.4 37.8 7.9 1.6-7.6-37.8-7.9-1.6 7.6zm5-18 35 16.3 3.2-7-35-16.4-3.2 7.1zm9.7-17.2 29.7 24.7 4.9-5.9-29.7-24.7-4.9 5.9zm19.2-18.3-6.2 4.6 23 31 6.2-4.6-23-31zM38 86h38.6v-7.7H38V86z" style="fill:#f48023"/></symbol><symbol viewBox="0 0 98.1 118" style="enable-background:new 0 0 98.1 118" xml:space="preserve" id="svelte" xmlns="http://www.w3.org/2000/svg"><path d="M91.8 15.6C80.9-.1 59.2-4.7 43.6 5.2L16.1 22.8C8.6 27.5 3.4 35.2 1.9 43.9c-1.3 7.3-.2 14.8 3.3 21.3-2.4 3.6-4 7.6-4.7 11.8-1.6 8.9.5 18.1 5.7 25.4 11 15.7 32.6 20.3 48.2 10.4l27.5-17.5c7.5-4.7 12.7-12.4 14.2-21.1 1.3-7.3.2-14.8-3.3-21.3 2.4-3.6 4-7.6 4.7-11.8 1.7-9-.4-18.2-5.7-25.5" style="fill:#ff3e00"/><path d="M40.9 103.9c-8.9 2.3-18.2-1.2-23.4-8.7-3.2-4.4-4.4-9.9-3.5-15.3.2-.9.4-1.7.6-2.6l.5-1.6 1.4 1c3.3 2.4 6.9 4.2 10.8 5.4l1 .3-.1 1c-.1 1.4.3 2.9 1.1 4.1 1.6 2.3 4.4 3.4 7.1 2.7.6-.2 1.2-.4 1.7-.7L65.5 72c1.4-.9 2.3-2.2 2.6-3.8.3-1.6-.1-3.3-1-4.6-1.6-2.3-4.4-3.3-7.1-2.6-.6.2-1.2.4-1.7.7l-10.5 6.7c-1.7 1.1-3.6 1.9-5.6 2.4-8.9 2.3-18.2-1.2-23.4-8.7-3.1-4.4-4.4-9.9-3.4-15.3.9-5.2 4.1-9.9 8.6-12.7l27.5-17.5c1.7-1.1 3.6-1.9 5.6-2.5 8.9-2.3 18.2 1.2 23.4 8.7 3.2 4.4 4.4 9.9 3.5 15.3-.2.9-.4 1.7-.7 2.6l-.5 1.6-1.4-1c-3.3-2.4-6.9-4.2-10.8-5.4l-1-.3.1-1c.1-1.4-.3-2.9-1.1-4.1-1.6-2.3-4.4-3.3-7.1-2.6-.6.2-1.2.4-1.7.7L32.4 46.1c-1.4.9-2.3 2.2-2.6 3.8s.1 3.3 1 4.6c1.6 2.3 4.4 3.3 7.1 2.6.6-.2 1.2-.4 1.7-.7l10.5-6.7c1.7-1.1 3.6-1.9 5.6-2.5 8.9-2.3 18.2 1.2 23.4 8.7 3.2 4.4 4.4 9.9 3.5 15.3-.9 5.2-4.1 9.9-8.6 12.7l-27.5 17.5c-1.7 1.1-3.6 1.9-5.6 2.5" style="fill:#fff"/></symbol><symbol viewBox="0 0 100 100" fill="none" id="vscode" xmlns="http://www.w3.org/2000/svg"><mask id="ua" mask-type="alpha" maskUnits="userSpaceOnUse" x="0" y="0" width="100" height="100"><path fill-rule="evenodd" clip-rule="evenodd" d="M70.912 99.317a6.223 6.223 0 0 0 4.96-.19l20.589-9.907A6.25 6.25 0 0 0 100 83.587V16.413a6.25 6.25 0 0 0-3.54-5.632L75.874.874a6.226 6.226 0 0 0-7.104 1.21L29.355 38.04 12.187 25.01a4.162 4.162 0 0 0-5.318.236l-5.506 5.009a4.168 4.168 0 0 0-.004 6.162L16.247 50 1.36 63.583a4.168 4.168 0 0 0 .004 6.162l5.506 5.01a4.162 4.162 0 0 0 5.318.236l17.168-13.032L68.77 97.917a6.217 6.217 0 0 0 2.143 1.4ZM75.015 27.3 45.11 50l29.906 22.701V27.3Z" fill="#fff"/></mask><g mask="url(#ua)"><path d="M96.461 10.796 75.857.876a6.23 6.23 0 0 0-7.107 1.207l-67.451 61.5a4.167 4.167 0 0 0 .004 6.162l5.51 5.009a4.167 4.167 0 0 0 5.32.236l81.228-61.62c2.725-2.067 6.639-.124 6.639 3.297v-.24a6.25 6.25 0 0 0-3.539-5.63Z" fill="#0065A9"/><g filter="url(#ub)"><path d="m96.461 89.204-20.604 9.92a6.229 6.229 0 0 1-7.107-1.207l-67.451-61.5a4.167 4.167 0 0 1 .004-6.162l5.51-5.009a4.167 4.167 0 0 1 5.32-.236l81.228 61.62c2.725 2.067 6.639.124 6.639-3.297v.24a6.25 6.25 0 0 1-3.539 5.63Z" fill="#007ACC"/></g><g filter="url(#uc)"><path d="M75.858 99.126a6.232 6.232 0 0 1-7.108-1.21c2.306 2.307 6.25.674 6.25-2.588V4.672c0-3.262-3.944-4.895-6.25-2.589a6.232 6.232 0 0 1 7.108-1.21l20.6 9.908A6.25 6.25 0 0 1 100 16.413v67.174a6.25 6.25 0 0 1-3.541 5.633l-20.601 9.906Z" fill="#1F9CF0"/></g><path fill-rule="evenodd" clip-rule="evenodd" d="M70.851 99.317a6.224 6.224 0 0 0 4.96-.19L96.4 89.22a6.25 6.25 0 0 0 3.54-5.633V16.413a6.25 6.25 0 0 0-3.54-5.632L75.812.874a6.226 6.226 0 0 0-7.104 1.21L29.294 38.04 12.126 25.01a4.162 4.162 0 0 0-5.317.236l-5.507 5.009a4.168 4.168 0 0 0-.004 6.162L16.186 50 1.298 63.583a4.168 4.168 0 0 0 .004 6.162l5.507 5.009a4.162 4.162 0 0 0 5.317.236L29.294 61.96l39.414 35.958a6.218 6.218 0 0 0 2.143 1.4ZM74.954 27.3 45.048 50l29.906 22.701V27.3Z" fill="url(#ud)" style="mix-blend-mode:overlay" opacity=".25"/></g><defs><filter id="ub" x="-8.394" y="15.829" width="116.727" height="92.246" filterUnits="userSpaceOnUse" color-interpolation-filters="sRGB"><feFlood flood-opacity="0" result="BackgroundImageFix"/><feColorMatrix in="SourceAlpha" values="0 0 0 0 0 0 0 0 0 0 0 0 0 0 0 0 0 0 127 0"/><feOffset/><feGaussianBlur stdDeviation="4.167"/><feColorMatrix values="0 0 0 0 0 0 0 0 0 0 0 0 0 0 0 0 0 0 0.25 0"/><feBlend mode="overlay" in2="BackgroundImageFix" result="effect1_dropShadow"/><feBlend in="SourceGraphic" in2="effect1_dropShadow" result="shape"/></filter><filter id="uc" x="60.417" y="-8.076" width="47.917" height="116.151" filterUnits="userSpaceOnUse" color-interpolation-filters="sRGB"><feFlood flood-opacity="0" result="BackgroundImageFix"/><feColorMatrix in="SourceAlpha" values="0 0 0 0 0 0 0 0 0 0 0 0 0 0 0 0 0 0 127 0"/><feOffset/><feGaussianBlur stdDeviation="4.167"/><feColorMatrix values="0 0 0 0 0 0 0 0 0 0 0 0 0 0 0 0 0 0 0.25 0"/><feBlend mode="overlay" in2="BackgroundImageFix" result="effect1_dropShadow"/><feBlend in="SourceGraphic" in2="effect1_dropShadow" result="shape"/></filter><linearGradient id="ud" x1="49.939" y1=".258" x2="49.939" y2="99.742" gradientUnits="userSpaceOnUse"><stop stop-color="#fff"/><stop offset="1" stop-color="#fff" stop-opacity="0"/></linearGradient></defs></symbol></svg>